<svg id="Layer_1" data-name="Layer 1" xmlns="http://www.w3.org/2000/svg" viewBox="0 0 96 108"><defs><style>.cls-1{opacity:0.05;}.cls-2{fill:#202129;fill-rule:evenodd;}</style></defs><title>1</title><g id="Page-1" class="cls-1"><g id="Homepage"><g id="Content-development"><g id="Blocks"><g id="Product-Reseach"><path id="background-number-01" class="cls-2" d="M34,14c8,9.26,12,22.61,12,41,0,16.29-4,29.62-12,39S14.54,108,0,108V0C14.54,0,26,4.65,34,14ZM0,90c6.92,0,11.29-2.89,15-9,3.26-5.43,5-14.54,5-26,0-13.56-1.74-22.7-5-29-3.71-5.14-8.08-8-15-8ZM51,1H96V107H72V21H51Z" transform="translate(0 0)"/></g></g></g></g></g></svg>