<svg id="Layer_1" data-name="Layer 1" xmlns="http://www.w3.org/2000/svg" viewBox="0 0 138 108"><defs><style>.cls-1{opacity:0.07;}.cls-2{fill:#202129;fill-rule:evenodd;}</style></defs><title>2</title><g id="Page-1" class="cls-1"><g id="Homepage"><g id="Content-development"><g id="Blocks"><g id="Design-_-Development" data-name="Design-&amp;-Development"><path id="background-number-02" class="cls-2" d="M34,14c8,9.26,12,22.61,12,41,0,16.29-4,29.62-12,39S14.54,108,0,108V0C14.54,0,26,4.65,34,14ZM0,90c6.92,0,11.29-2.89,15-9,3.26-5.43,5-14.54,5-26,0-13.56-1.74-22.7-5-29-3.71-5.14-8.08-8-15-8Zm138-3v20H60V91L98,50a50.3,50.3,0,0,0,9-11,25.93,25.93,0,0,0,3-8,11.82,11.82,0,0,0-4-8c-2.77-1.79-6.27-2.72-11-3a36.15,36.15,0,0,0-14,4,71.68,71.68,0,0,0-15,9L57,15C70.7,5.2,84.6,0,99,0a53.91,53.91,0,0,1,18,3,36.28,36.28,0,0,1,13,10,24.21,24.21,0,0,1,4,14,26.85,26.85,0,0,1-5,16c-3.56,6.64-8.47,12.85-15,20L90,87Z" transform="translate(0 0)"/></g></g></g></g></g></svg>