<svg id="Layer_5" enable-background="new 0 0 64 64" height="512" viewBox="0 0 64 64" width="512" xmlns="http://www.w3.org/2000/svg"><path d="m34 32v15c0 .552-.448 1-1 1h-26c-.552 0-1-.448-1-1v-16c0-.552.448-1 1-1h19l.642.16c-.402-.623-.642-1.362-.642-2.16v-3h-20c-2.757 0-5 2.243-5 5v18c0 2.757 2.243 5 5 5h28c2.757 0 5-2.243 5-5v-16z" fill="#f0bc5e"/><path d="m51 20c-3.86 0-7-3.14-7-7s3.14-7 7-7 7 3.14 7 7-3.14 7-7 7zm0-10c-1.654 0-3 1.346-3 3s1.346 3 3 3 3-1.346 3-3-1.346-3-3-3z" fill="#f0bc5e"/><path d="m58 5h-1v-1c0-1.654-1.346-3-3-3h-20c-1.654 0-3 1.346-3 3v1h-1c-2.757 0-5 2.243-5 5v18c0 .342.035.677.101 1h-18.101c-1.103 0-2 .897-2 2v16c0 1.103.897 2 2 2h26c1.103 0 2-.897 2-2v-14h23c2.757 0 5-2.243 5-5v-18c0-2.757-2.243-5-5-5zm3 5v9h-17c-1.654 0-3-1.346-3-3v-9h17c1.654 0 3 1.346 3 3zm-6-6v1h-16v-2h15c.551 0 1 .449 1 1zm-22 0c0-.551.449-1 1-1h3v2h-4zm-13 37c-1.654 0-3-1.346-3-3s1.346-3 3-3 3 1.346 3 3-1.346 3-3 3zm-2 2h4c2.414 0 4.434 1.721 4.899 4h-13.798c.465-2.279 2.485-4 4.899-4zm15 4h-4.08c-.403-2.794-2.457-5.055-5.142-5.762.751-.875 1.222-1.997 1.222-3.238 0-2.757-2.243-5-5-5s-5 2.243-5 5c0 1.241.471 2.363 1.222 3.238-2.685.707-4.739 2.968-5.142 5.762h-4.08v-16h19v-.031c.912 1.225 2.359 2.031 4 2.031h3zm25-16h-28c-1.654 0-3-1.346-3-3v-18c0-1.654 1.346-3 3-3h9v9c0 2.757 2.243 5 5 5h17v7c0 1.654-1.346 3-3 3z"/><path d="m51 17c2.206 0 4-1.794 4-4s-1.794-4-4-4-4 1.794-4 4 1.794 4 4 4zm0-6c1.103 0 2 .897 2 2s-.897 2-2 2-2-.897-2-2 .897-2 2-2z"/><path d="m42 52h-2c-1.302 0-2.402.839-2.816 2h-10.184v-1h-2v4h-10v-4h-2v4h-2c-1.103 0-2 .897-2 2v2c0 1.103.897 2 2 2h18c1.103 0 2-.897 2-2v-2c0-1.103-.897-2-2-2h-2v-1h10.184c.414 1.161 1.514 2 2.816 2h2c1.654 0 3-1.346 3-3s-1.346-3-3-3zm-12.999 9h-18.001v-2h18zm12.999-5h-2c-.551 0-1-.449-1-1s.449-1 1-1h2c.551 0 1 .449 1 1s-.449 1-1 1z"/><path d="m37 9h-8v8h8zm-2 6h-4v-4h4z"/><path d="m29 19h2v2h-2z"/><path d="m33 19h2v2h-2z"/><path d="m56 23c-1.654 0-3 1.346-3 3s1.346 3 3 3 3-1.346 3-3-1.346-3-3-3zm0 4c-.551 0-1-.449-1-1s.449-1 1-1 1 .449 1 1-.449 1-1 1z"/><path d="m47 23h-16c-1.103 0-2 .897-2 2v2c0 1.103.897 2 2 2h16c1.103 0 2-.897 2-2v-2c0-1.103-.897-2-2-2zm-6 2v2h-4v-2zm-10 0h4v2h-4zm12 2v-2h4l.001 2z"/><path d="m9 33h2v2h-2z"/><path d="m9 37h2v2h-2z"/><path d="m9 41h2v2h-2z"/><path d="m29 43h2v2h-2z"/><path d="m29 39h2v2h-2z"/><path d="m29 35h2v2h-2z"/></svg>