<svg id="Layer_1" data-name="Layer 1" xmlns="http://www.w3.org/2000/svg" viewBox="0 0 136 108"><defs><style>.cls-1{opacity:0.07;}.cls-2{fill:#202129;fill-rule:evenodd;}</style></defs><title>3</title><g id="Page-1" class="cls-1"><g id="Homepage"><g id="Content-development"><g id="Blocks"><g id="Testing-_-Support" data-name="Testing-&amp;-Support"><path id="background-number-03" class="cls-2" d="M34,14c8,9.26,12,22.61,12,41,0,16.29-4,29.62-12,39S14.54,108,0,108V0C14.54,0,26,4.65,34,14ZM0,90c6.92,0,11.29-2.89,15-9,3.26-5.43,5-14.54,5-26,0-13.56-1.74-22.7-5-29-3.71-5.14-8.08-8-15-8ZM128,55c5.29,4.24,8,10.78,8,19a34.84,34.84,0,0,1-5,18,40.24,40.24,0,0,1-15,12,55.4,55.4,0,0,1-21,4,79,79,0,0,1-22-3,78.83,78.83,0,0,1-19-9l9-18a45.57,45.57,0,0,0,14,8,37.26,37.26,0,0,0,16,3c5.81.11,10.89-1.23,14-4,4.06-2.57,5.85-6.27,6-11-.15-4.74-1.94-8.34-6-10-3.11-3.28-8.24-4.51-14-4H75V45l26-25H59V1h72V15L100,44h6C115.14,46,122.43,49.16,128,55Z" transform="translate(0 0)"/></g></g></g></g></g></svg>