<?xml version="1.0" encoding="utf-8"?>
<!-- Generator: Adobe Illustrator 24.0.1, SVG Export Plug-In . SVG Version: 6.00 Build 0)  -->
<svg version="1.1" id="Layer_1" xmlns="http://www.w3.org/2000/svg" xmlns:xlink="http://www.w3.org/1999/xlink" x="0px" y="0px"
	 viewBox="0 0 124.3 109.2" style="enable-background:new 0 0 124.3 109.2;" xml:space="preserve">
<style type="text/css">
	.st0{opacity:7.000000e-02;fill-rule:evenodd;clip-rule:evenodd;fill:#111114;enable-background:new    ;}
	.st1{opacity:7.000000e-02;fill:#111114;enable-background:new    ;}
</style>
<title>4</title>
<path id="background-number-03" class="st0" d="M34,14c8,9.3,12,22.6,12,41c0,16.3-4,29.6-12,39s-19.5,14-34,14V0
	C14.5,0,26,4.6,34,14z M0,90c6.9,0,11.3-2.9,15-9c3.3-5.4,5-14.5,5-26c0-13.6-1.7-22.7-5-29c-3.7-5.1-8.1-8-15-8V90z"/>
<polygon class="st1" points="124.3,45.2 101.6,45.2 101.6,63.8 84.3,63.8 118.9,0 94,0 55.9,68.2 55.9,88.3 100.8,88.3 100.8,109.2 
	124.3,109.2 124.3,89.4 124.3,88.3 124.3,63.8 "/>
</svg>
