<?xml version="1.0" encoding="utf-8"?>
<!-- Generator: Adobe Illustrator 24.0.1, SVG Export Plug-In . SVG Version: 6.00 Build 0)  -->
<svg version="1.1" xmlns="http://www.w3.org/2000/svg" xmlns:xlink="http://www.w3.org/1999/xlink" x="0px" y="0px"
	 viewBox="0 0 1600 551.86" style="enable-background:new 0 0 1600 551.86;" xml:space="preserve">
<style type="text/css">
	.st0{fill:none;stroke:#FFFFFF;stroke-width:5;stroke-miterlimit:10;}
	.st1{fill:none;stroke:#FFFFFF;stroke-width:5.1771;stroke-miterlimit:10;}
	.st2{fill:none;stroke:#FFFFFF;stroke-width:4.9515;stroke-miterlimit:10;}
	.st3{fill:none;stroke:#FFFFFF;stroke-width:5.3201;stroke-miterlimit:10;}
	.st4{fill:#B51700;}
	.st5{fill:#FCFCFC;}
	.st6{opacity:0.2;}
	.st7{fill:none;stroke:#FFFFFF;stroke-width:2.1481;stroke-miterlimit:10;}
	.st8{fill:none;stroke:#FFFFFF;stroke-width:2;stroke-miterlimit:10;}
	.st9{fill:#8AC73C;}
	.st10{fill:#0F0F0F;}
	.st11{fill:#FFFFFF;}
</style>
<g id="BACKGROUND">
</g>
<g id="TEXT">
	<polyline class="st0" points="125.36,31.56 27.14,31.56 27.14,118.78 	"/>
	<polyline class="st1" points="129.59,498.78 31.38,498.78 31.38,405.27 	"/>
	<polyline class="st2" points="1477.46,28.88 1573.78,28.88 1573.78,116.1 	"/>
	<polyline class="st3" points="1474.3,506.77 1578.02,506.77 1578.02,413.26 	"/>
	<ellipse class="st4" cx="53.78" cy="81.79" rx="8.55" ry="8.22"/>
	<g>
		<path class="st5" d="M69.43,91.24V70.97h9.18c0.95,0,1.83,0.19,2.63,0.57s1.49,0.88,2.07,1.5c0.57,0.62,1.02,1.32,1.35,2.11
			c0.33,0.79,0.49,1.6,0.49,2.41c0,0.69-0.1,1.34-0.3,1.97c-0.2,0.63-0.48,1.21-0.83,1.74c-0.36,0.53-0.79,1-1.31,1.39
			s-1.08,0.68-1.69,0.87l4.96,7.71h-3.77l-4.58-7.05h-4.87v7.05H69.43z M72.76,81.36h5.82c0.48,0,0.91-0.1,1.29-0.3
			c0.39-0.2,0.72-0.48,1-0.83c0.28-0.35,0.5-0.76,0.65-1.21c0.16-0.46,0.24-0.94,0.24-1.46c0-0.51-0.09-1-0.28-1.46
			c-0.19-0.46-0.44-0.86-0.74-1.2s-0.66-0.61-1.07-0.81c-0.41-0.2-0.83-0.3-1.26-0.3h-5.65V81.36z"/>
		<path class="st5" d="M103.54,88.42v2.83H89.07V70.97h14.2v2.83H92.4v5.77h9.42v2.66H92.4v6.2H103.54z"/>
		<path class="st5" d="M105.21,80.96c0-1.22,0.23-2.43,0.68-3.64c0.46-1.21,1.12-2.29,2.01-3.26c0.88-0.96,1.96-1.74,3.22-2.33
			c1.27-0.59,2.7-0.89,4.31-0.89c1.92,0,3.57,0.41,4.93,1.23c1.37,0.82,2.4,1.88,3.09,3.2l-2.61,1.68c-0.3-0.61-0.65-1.12-1.07-1.54
			c-0.42-0.42-0.87-0.75-1.37-1c-0.5-0.25-1.01-0.42-1.54-0.53c-0.54-0.1-1.05-0.16-1.55-0.16c-1.11,0-2.08,0.21-2.91,0.64
			c-0.83,0.43-1.53,1-2.09,1.7c-0.56,0.7-0.99,1.5-1.28,2.37c-0.29,0.88-0.43,1.75-0.43,2.63c0,0.99,0.17,1.93,0.5,2.83
			s0.81,1.69,1.41,2.37c0.6,0.69,1.32,1.23,2.15,1.64c0.83,0.41,1.74,0.61,2.73,0.61c0.51,0,1.04-0.06,1.59-0.19
			c0.54-0.12,1.07-0.32,1.57-0.6c0.51-0.28,0.97-0.62,1.4-1.04c0.43-0.42,0.78-0.92,1.06-1.51l2.76,1.51
			c-0.34,0.76-0.81,1.43-1.43,2.01c-0.61,0.58-1.31,1.07-2.08,1.47c-0.77,0.4-1.59,0.7-2.45,0.91c-0.86,0.21-1.71,0.31-2.54,0.31
			c-1.49,0-2.84-0.3-4.07-0.91c-1.23-0.61-2.29-1.4-3.18-2.38c-0.89-0.98-1.58-2.09-2.08-3.34S105.21,82.26,105.21,80.96z"/>
	</g>
	<g class="st6">
		<g>
			<g>
				<polyline class="st7" points="712.42,297.79 712.42,330.07 743.33,330.07 				"/>
				<polyline class="st7" points="743.33,220.01 712.42,220.01 712.42,251.23 				"/>
			</g>
			<g>
				<polyline class="st7" points="899.93,297.79 899.93,330.07 869.02,330.07 				"/>
				<polyline class="st7" points="869.02,220.01 899.93,220.01 899.93,251.23 				"/>
			</g>
		</g>
		<g>
			<line class="st7" x1="805.75" y1="267.08" x2="805.75" y2="281.72"/>
			<line class="st7" x1="812.82" y1="274.4" x2="798.67" y2="274.4"/>
		</g>
	</g>
	<g>
		<path class="st8" d="M1488.27,89.81h-57.32c-4.32,0-7.82-3.5-7.82-7.82V67.95c0-4.32,3.5-7.82,7.82-7.82h57.32
			c4.32,0,7.82,3.5,7.82,7.82v14.03C1496.1,86.3,1492.59,89.81,1488.27,89.81z"/>
		<path class="st8" d="M1488.27,89.81h-57.32c-4.32,0-7.82-3.5-7.82-7.82V67.95c0-4.32,3.5-7.82,7.82-7.82h57.32
			c4.32,0,7.82,3.5,7.82,7.82v14.03C1496.1,86.3,1492.59,89.81,1488.27,89.81z"/>
		<path class="st8" d="M1422.23,83.67h-2.61c-2.28,0-4.14-1.85-4.14-4.14V70.4c0-2.28,1.85-4.14,4.14-4.14h2.61"/>
		<g>
			<polygon class="st9" points="1455.36,62.62 1465.63,87.25 1481.31,87.25 1471.05,62.62 			"/>
			<path class="st9" d="M1429.78,62.62c-2.49,0-4.51,2.02-4.51,4.51v15.61c0,2.49,2.02,4.51,4.51,4.51h15.78l-10.26-24.62H1429.78z"
				/>
			<polygon class="st9" points="1437.49,62.62 1447.75,87.25 1463.43,87.25 1453.17,62.62 			"/>
			<path class="st9" d="M1489.57,62.62h-16.33l10.26,24.62h6.07c2.49,0,4.51-2.02,4.51-4.51V67.13
				C1494.08,64.64,1492.06,62.62,1489.57,62.62z"/>
			<polygon class="st10" points="1435.29,62.62 1445.56,87.25 1447.75,87.25 1437.49,62.62 			"/>
			<polygon class="st10" points="1453.17,62.62 1463.43,87.25 1465.63,87.25 1455.36,62.62 			"/>
			<polygon class="st10" points="1471.05,62.62 1481.31,87.25 1483.5,87.25 1473.24,62.62 			"/>
		</g>
	</g>
	<g>
		<path class="st11" d="M1518.72,72.54c0,3.03-0.61,5.29-1.83,6.78c-1.22,1.49-3.06,2.24-5.51,2.24c-0.93,0-1.6-0.06-2.01-0.17
			v-2.07c0.62,0.18,1.25,0.26,1.88,0.26c1.67,0,2.91-0.45,3.73-1.35c0.82-0.9,1.27-2.31,1.35-4.23h-0.13
			c-0.41,0.63-0.91,1.09-1.5,1.37c-0.58,0.28-1.27,0.42-2.05,0.42c-1.36,0-2.43-0.42-3.21-1.27c-0.78-0.85-1.17-2.01-1.17-3.49
			c0-1.6,0.45-2.88,1.35-3.83c0.9-0.95,2.13-1.42,3.69-1.42c1.09,0,2.05,0.27,2.86,0.8c0.81,0.53,1.44,1.31,1.88,2.32
			C1518.5,69.91,1518.72,71.12,1518.72,72.54z M1513.36,67.83c-0.86,0-1.51,0.28-1.97,0.84c-0.46,0.56-0.68,1.34-0.68,2.35
			c0,0.88,0.21,1.56,0.64,2.07s1.07,0.75,1.93,0.75c0.83,0,1.54-0.25,2.1-0.75c0.57-0.5,0.85-1.08,0.85-1.75
			c0-0.62-0.12-1.21-0.36-1.75c-0.24-0.54-0.58-0.97-1.01-1.29S1513.92,67.83,1513.36,67.83z"/>
		<path class="st11" d="M1531.02,72.54c0,3.03-0.61,5.29-1.83,6.78c-1.22,1.49-3.06,2.24-5.51,2.24c-0.93,0-1.6-0.06-2.01-0.17
			v-2.07c0.62,0.18,1.25,0.26,1.88,0.26c1.67,0,2.91-0.45,3.73-1.35c0.82-0.9,1.27-2.31,1.35-4.23h-0.13
			c-0.41,0.63-0.91,1.09-1.5,1.37c-0.58,0.28-1.27,0.42-2.05,0.42c-1.36,0-2.43-0.42-3.21-1.27c-0.78-0.85-1.17-2.01-1.17-3.49
			c0-1.6,0.45-2.88,1.35-3.83c0.9-0.95,2.13-1.42,3.69-1.42c1.09,0,2.05,0.27,2.86,0.8c0.81,0.53,1.44,1.31,1.88,2.32
			C1530.8,69.91,1531.02,71.12,1531.02,72.54z M1525.65,67.83c-0.86,0-1.51,0.28-1.97,0.84c-0.46,0.56-0.68,1.34-0.68,2.35
			c0,0.88,0.21,1.56,0.64,2.07s1.07,0.75,1.93,0.75c0.83,0,1.54-0.25,2.1-0.75c0.57-0.5,0.85-1.08,0.85-1.75
			c0-0.62-0.12-1.21-0.36-1.75c-0.24-0.54-0.58-0.97-1.01-1.29S1526.21,67.83,1525.65,67.83z"/>
		<path class="st11" d="M1539.63,70.56c0,1.61-0.29,2.82-0.87,3.63s-1.43,1.21-2.56,1.21c-1.07,0-1.89-0.42-2.48-1.26
			c-0.58-0.84-0.88-2.03-0.88-3.59c0-3.2,1.12-4.81,3.35-4.81c1.1,0,1.95,0.42,2.54,1.25C1539.33,67.83,1539.63,69.02,1539.63,70.56
			z M1534.89,70.58c0,1.04,0.1,1.82,0.3,2.33s0.54,0.77,1,0.77c0.92,0,1.39-1.03,1.39-3.1s-0.46-3.1-1.39-3.1
			c-0.46,0-0.8,0.26-1,0.77S1534.89,69.54,1534.89,70.58z M1546.51,65.98l-8.53,15.37h-2.04l8.53-15.37H1546.51z M1549.64,76.72
			c0,1.61-0.29,2.82-0.87,3.63c-0.58,0.81-1.43,1.21-2.54,1.21c-1.07,0-1.89-0.42-2.48-1.25s-0.88-2.03-0.88-3.59
			c0-3.2,1.12-4.81,3.36-4.81c1.08,0,1.92,0.41,2.52,1.24C1549.34,73.98,1549.64,75.17,1549.64,76.72z M1544.9,76.72
			c0,1.04,0.1,1.83,0.31,2.34c0.21,0.52,0.54,0.78,1,0.78c0.92,0,1.38-1.04,1.38-3.12c0-2.05-0.46-3.08-1.38-3.08
			c-0.46,0-0.8,0.25-1,0.76C1545.01,74.9,1544.9,75.68,1544.9,76.72z"/>
	</g>
	<rect x="1188.95" y="57.76" class="st11" width="50.59" height="34.4"/>
	<g>
		<path d="M1212.09,83.6h-2.97v-8.16h-8.35v8.16h-2.96V65.5h2.96v7.4h8.35v-7.4h2.97V83.6z"/>
		<path d="M1231.58,74.38c0,2.99-0.83,5.27-2.49,6.85s-4.05,2.37-7.17,2.37h-5.06V65.5h5.6c2.88,0,5.12,0.78,6.72,2.33
			C1230.78,69.38,1231.58,71.56,1231.58,74.38z M1228.46,74.48c0-4.33-2.03-6.5-6.08-6.5h-2.56v13.14h2.11
			C1226.28,81.11,1228.46,78.9,1228.46,74.48z"/>
	</g>
	<rect x="1252.7" y="57.76" class="st8" width="50.59" height="34.4"/>
	<g>
		<path class="st11" d="M1275.22,79.65h-2.44v3.95h-2.84v-3.95h-8.27v-2.24l8.27-11.96h2.84v11.79h2.44V79.65z M1269.94,77.24v-4.54
			c0-1.62,0.04-2.94,0.12-3.97h-0.1c-0.23,0.54-0.59,1.21-1.09,1.98l-4.5,6.54H1269.94z"/>
		<path class="st11" d="M1291.87,83.6h-3.43l-5.68-8.2l-1.75,1.42v6.77h-2.96V65.5h2.96v8.64c0.81-0.99,1.61-1.94,2.42-2.86
			l4.89-5.78h3.37c-3.16,3.71-5.43,6.36-6.8,7.94L1291.87,83.6z"/>
	</g>
	<g>
		<path class="st11" d="M1328.01,82.25h-12.27v-2.2l4.67-4.69c1.38-1.41,2.29-2.41,2.74-3c0.45-0.59,0.78-1.15,0.98-1.67
			c0.21-0.52,0.31-1.08,0.31-1.67c0-0.82-0.25-1.46-0.74-1.93s-1.17-0.71-2.04-0.71c-0.69,0-1.36,0.13-2.01,0.38
			s-1.4,0.72-2.25,1.39l-1.57-1.92c1.01-0.85,1.98-1.45,2.93-1.81c0.95-0.35,1.96-0.53,3.03-0.53c1.68,0,3.03,0.44,4.05,1.32
			c1.02,0.88,1.52,2.06,1.52,3.55c0,0.82-0.15,1.59-0.44,2.33s-0.74,1.49-1.35,2.27c-0.61,0.78-1.62,1.83-3.03,3.16l-3.14,3.05v0.12
			h8.59V82.25z"/>
		<path class="st11" d="M1336.35,70.95c1.82,0,3.27,0.48,4.33,1.45c1.06,0.97,1.6,2.28,1.6,3.95c0,1.93-0.6,3.44-1.81,4.53
			c-1.21,1.09-2.93,1.63-5.16,1.63c-2.02,0-3.61-0.33-4.77-0.98v-2.64c0.67,0.38,1.44,0.67,2.3,0.88c0.87,0.21,1.67,0.31,2.41,0.31
			c1.31,0,2.31-0.29,3-0.88c0.68-0.59,1.03-1.44,1.03-2.58c0-2.16-1.38-3.24-4.14-3.24c-0.39,0-0.87,0.04-1.44,0.12
			c-0.57,0.08-1.07,0.17-1.5,0.27l-1.3-0.77l0.69-8.84h9.41v2.59h-6.85l-0.41,4.48c0.29-0.05,0.64-0.11,1.06-0.17
			S1335.75,70.95,1336.35,70.95z"/>
		<path class="st11" d="M1348.89,82.25h-2.93v-18.1h10.21v2.5h-7.28v5.66h6.82v2.51h-6.82V82.25z"/>
		<path class="st11" d="M1371.44,69.62c0,1.89-0.62,3.34-1.86,4.35c-1.24,1.01-3,1.51-5.29,1.51h-1.88v6.77h-2.96v-18.1h5.21
			c2.26,0,3.96,0.46,5.08,1.39C1370.88,66.46,1371.44,67.82,1371.44,69.62z M1362.41,72.99h1.57c1.52,0,2.63-0.26,3.34-0.79
			s1.06-1.35,1.06-2.48c0-1.04-0.32-1.82-0.95-2.33s-1.63-0.77-2.97-0.77h-2.06V72.99z"/>
		<path class="st11" d="M1385.5,77.34c0,1.61-0.58,2.87-1.75,3.79c-1.16,0.92-2.77,1.37-4.82,1.37c-2.05,0-3.72-0.32-5.03-0.95v-2.8
			c0.83,0.39,1.7,0.69,2.63,0.92c0.93,0.22,1.79,0.33,2.59,0.33c1.17,0,2.04-0.22,2.59-0.67c0.56-0.45,0.84-1.04,0.84-1.8
			c0-0.68-0.26-1.25-0.77-1.72c-0.51-0.47-1.57-1.03-3.17-1.67c-1.65-0.67-2.82-1.43-3.49-2.29s-1.02-1.89-1.02-3.1
			c0-1.51,0.54-2.7,1.61-3.57c1.07-0.87,2.51-1.3,4.32-1.3c1.73,0,3.46,0.38,5.18,1.14l-0.94,2.41c-1.61-0.68-3.05-1.02-4.31-1.02
			c-0.96,0-1.68,0.21-2.18,0.63c-0.5,0.42-0.74,0.97-0.74,1.65c0,0.47,0.1,0.87,0.3,1.21c0.2,0.33,0.52,0.65,0.98,0.95
			c0.45,0.3,1.27,0.69,2.45,1.18c1.33,0.55,2.3,1.07,2.92,1.55c0.62,0.48,1.07,1.02,1.36,1.62S1385.5,76.52,1385.5,77.34z"/>
	</g>
	<g>
		<path class="st11" d="M1437.64,473.24l-5.09-14.67h-0.1c0.14,2.18,0.2,4.22,0.2,6.13v8.54h-2.61v-17.57h4.05l4.88,13.98h0.07
			l5.02-13.98h4.06v17.57h-2.76v-8.69c0-0.87,0.02-2.01,0.07-3.41s0.08-2.25,0.11-2.55h-0.1l-5.28,14.65H1437.64z"/>
		<path class="st11" d="M1462.7,473.24h-9.94v-17.57h9.94v2.43h-7.07v4.78h6.62v2.4h-6.62v5.52h7.07V473.24z"/>
		<path class="st11" d="M1481.13,473.24h-3.52l-8.64-14h-0.1l0.06,0.78c0.11,1.49,0.17,2.85,0.17,4.09v9.13h-2.61v-17.57h3.49
			l8.62,13.93h0.07c-0.02-0.18-0.05-0.85-0.1-2.01c-0.05-1.16-0.07-2.06-0.07-2.71v-9.21h2.63V473.24z"/>
		<path class="st11" d="M1499.54,455.67v11.37c0,1.3-0.28,2.43-0.84,3.41c-0.56,0.97-1.36,1.72-2.42,2.25
			c-1.05,0.53-2.31,0.79-3.78,0.79c-2.18,0-3.87-0.58-5.08-1.73s-1.81-2.74-1.81-4.76v-11.32h2.88v11.12c0,1.45,0.34,2.52,1.01,3.21
			c0.67,0.69,1.71,1.03,3.1,1.03c2.71,0,4.06-1.42,4.06-4.27v-11.09H1499.54z"/>
	</g>
	<g>
		<line class="st8" x1="1507.84" y1="457.06" x2="1515.49" y2="457.06"/>
		<line class="st8" x1="1507.84" y1="464.26" x2="1515.49" y2="464.26"/>
		<line class="st8" x1="1507.84" y1="471.46" x2="1515.49" y2="471.46"/>
	</g>
	<g>
		<line class="st8" x1="1522.46" y1="457.06" x2="1546.37" y2="457.06"/>
		<line class="st8" x1="1522.46" y1="464.26" x2="1546.37" y2="464.26"/>
		<line class="st8" x1="1522.46" y1="471.46" x2="1546.37" y2="471.46"/>
	</g>
	<g>
		<path class="st11" d="M749.36,476.07c0,3.14-0.51,5.48-1.52,7.01s-2.56,2.29-4.64,2.29c-2.01,0-3.54-0.79-4.58-2.37
			c-1.04-1.58-1.56-3.89-1.56-6.93c0-3.2,0.51-5.55,1.52-7.06s2.55-2.27,4.62-2.27c2.02,0,3.55,0.79,4.59,2.38
			S749.36,473.01,749.36,476.07z M740.02,476.07c0,2.47,0.25,4.23,0.76,5.29c0.51,1.06,1.32,1.58,2.43,1.58
			c1.11,0,1.93-0.54,2.45-1.61c0.52-1.07,0.77-2.83,0.77-5.26c0-2.43-0.26-4.18-0.77-5.27c-0.52-1.09-1.33-1.63-2.45-1.63
			c-1.11,0-1.93,0.53-2.43,1.6C740.27,471.83,740.02,473.6,740.02,476.07z"/>
		<path class="st11" d="M763.84,476.07c0,3.14-0.51,5.48-1.52,7.01s-2.56,2.29-4.64,2.29c-2.01,0-3.54-0.79-4.58-2.37
			c-1.04-1.58-1.56-3.89-1.56-6.93c0-3.2,0.51-5.55,1.52-7.06s2.55-2.27,4.62-2.27c2.02,0,3.55,0.79,4.59,2.38
			S763.84,473.01,763.84,476.07z M754.49,476.07c0,2.47,0.25,4.23,0.76,5.29c0.51,1.06,1.32,1.58,2.43,1.58
			c1.11,0,1.93-0.54,2.45-1.61c0.52-1.07,0.77-2.83,0.77-5.26c0-2.43-0.26-4.18-0.77-5.27c-0.52-1.09-1.33-1.63-2.45-1.63
			c-1.11,0-1.93,0.53-2.43,1.6C754.75,471.83,754.49,473.6,754.49,476.07z"/>
		<path class="st11" d="M766.58,473c0-1.25,0.61-1.87,1.83-1.87c0.62,0,1.08,0.17,1.39,0.5c0.31,0.33,0.46,0.79,0.46,1.37
			s-0.16,1.05-0.48,1.39c-0.32,0.34-0.77,0.51-1.37,0.51s-1.05-0.17-1.36-0.51C766.73,474.06,766.58,473.59,766.58,473z
			 M766.58,483.57c0-0.6,0.16-1.06,0.47-1.39c0.31-0.32,0.77-0.48,1.36-0.48c0.6,0,1.06,0.17,1.37,0.5
			c0.31,0.33,0.47,0.79,0.47,1.37c0,0.59-0.16,1.05-0.48,1.39c-0.32,0.34-0.77,0.51-1.37,0.51s-1.05-0.17-1.36-0.51
			C766.73,484.63,766.58,484.17,766.58,483.57z"/>
		<path class="st11" d="M785.29,476.07c0,3.14-0.51,5.48-1.52,7.01s-2.56,2.29-4.64,2.29c-2.01,0-3.54-0.79-4.58-2.37
			c-1.04-1.58-1.56-3.89-1.56-6.93c0-3.2,0.51-5.55,1.52-7.06s2.55-2.27,4.62-2.27c2.02,0,3.55,0.79,4.59,2.38
			S785.29,473.01,785.29,476.07z M775.94,476.07c0,2.47,0.25,4.23,0.76,5.29c0.51,1.06,1.32,1.58,2.43,1.58
			c1.11,0,1.93-0.54,2.45-1.61c0.52-1.07,0.77-2.83,0.77-5.26c0-2.43-0.26-4.18-0.77-5.27c-0.52-1.09-1.33-1.63-2.45-1.63
			c-1.11,0-1.93,0.53-2.43,1.6C776.19,471.83,775.94,473.6,775.94,476.07z"/>
		<path class="st11" d="M799.76,476.07c0,3.14-0.51,5.48-1.52,7.01s-2.56,2.29-4.64,2.29c-2.01,0-3.54-0.79-4.58-2.37
			c-1.04-1.58-1.56-3.89-1.56-6.93c0-3.2,0.51-5.55,1.52-7.06s2.55-2.27,4.62-2.27c2.02,0,3.55,0.79,4.59,2.38
			S799.76,473.01,799.76,476.07z M790.41,476.07c0,2.47,0.25,4.23,0.76,5.29c0.51,1.06,1.32,1.58,2.43,1.58
			c1.11,0,1.93-0.54,2.45-1.61c0.52-1.07,0.77-2.83,0.77-5.26c0-2.43-0.26-4.18-0.77-5.27c-0.52-1.09-1.33-1.63-2.45-1.63
			c-1.11,0-1.93,0.53-2.43,1.6C790.67,471.83,790.41,473.6,790.41,476.07z"/>
		<path class="st11" d="M802.5,473c0-1.25,0.61-1.87,1.83-1.87c0.62,0,1.08,0.17,1.39,0.5c0.31,0.33,0.46,0.79,0.46,1.37
			s-0.16,1.05-0.48,1.39c-0.32,0.34-0.77,0.51-1.37,0.51s-1.05-0.17-1.36-0.51C802.65,474.06,802.5,473.59,802.5,473z M802.5,483.57
			c0-0.6,0.16-1.06,0.47-1.39c0.31-0.32,0.77-0.48,1.36-0.48c0.6,0,1.06,0.17,1.37,0.5c0.31,0.33,0.47,0.79,0.47,1.37
			c0,0.59-0.16,1.05-0.48,1.39c-0.32,0.34-0.77,0.51-1.37,0.51s-1.05-0.17-1.36-0.51C802.65,484.63,802.5,484.17,802.5,483.57z"/>
		<path class="st11" d="M821.21,485.12h-12.27v-2.2l4.67-4.69c1.38-1.41,2.29-2.41,2.74-3c0.45-0.59,0.78-1.15,0.98-1.67
			c0.21-0.52,0.31-1.08,0.31-1.67c0-0.82-0.25-1.46-0.74-1.93s-1.17-0.71-2.04-0.71c-0.69,0-1.36,0.13-2.01,0.38
			s-1.4,0.72-2.25,1.39l-1.57-1.92c1.01-0.85,1.98-1.45,2.94-1.81c0.95-0.35,1.96-0.53,3.03-0.53c1.68,0,3.03,0.44,4.05,1.32
			s1.52,2.06,1.52,3.55c0,0.82-0.15,1.59-0.44,2.33c-0.29,0.74-0.74,1.49-1.35,2.27c-0.61,0.78-1.62,1.83-3.03,3.16l-3.14,3.05v0.12
			h8.59V485.12z"/>
		<path class="st11" d="M835.68,476.07c0,3.14-0.51,5.48-1.52,7.01c-1.01,1.53-2.56,2.29-4.64,2.29c-2.01,0-3.54-0.79-4.58-2.37
			c-1.04-1.58-1.56-3.89-1.56-6.93c0-3.2,0.5-5.55,1.52-7.06c1.01-1.51,2.55-2.27,4.63-2.27c2.02,0,3.55,0.79,4.59,2.38
			S835.68,473.01,835.68,476.07z M826.33,476.07c0,2.47,0.25,4.23,0.76,5.29s1.32,1.58,2.43,1.58s1.93-0.54,2.45-1.61
			c0.52-1.07,0.77-2.83,0.77-5.26c0-2.43-0.26-4.18-0.77-5.27c-0.52-1.09-1.33-1.63-2.45-1.63s-1.93,0.53-2.43,1.6
			C826.59,471.83,826.33,473.6,826.33,476.07z"/>
		<path class="st11" d="M838.42,473c0-1.25,0.61-1.87,1.83-1.87c0.62,0,1.08,0.17,1.39,0.5s0.46,0.79,0.46,1.37
			s-0.16,1.05-0.48,1.39c-0.32,0.34-0.77,0.51-1.37,0.51c-0.59,0-1.05-0.17-1.36-0.51S838.42,473.59,838.42,473z M838.42,483.57
			c0-0.6,0.16-1.06,0.47-1.39s0.77-0.48,1.36-0.48c0.6,0,1.06,0.17,1.37,0.5s0.47,0.79,0.47,1.37c0,0.59-0.16,1.05-0.48,1.39
			c-0.32,0.34-0.77,0.51-1.37,0.51c-0.59,0-1.05-0.17-1.36-0.51C838.57,484.63,838.42,484.17,838.42,483.57z"/>
		<path class="st11" d="M857.13,476.07c0,3.14-0.51,5.48-1.52,7.01c-1.01,1.53-2.56,2.29-4.64,2.29c-2.01,0-3.54-0.79-4.58-2.37
			c-1.04-1.58-1.56-3.89-1.56-6.93c0-3.2,0.5-5.55,1.52-7.06c1.01-1.51,2.55-2.27,4.63-2.27c2.02,0,3.55,0.79,4.59,2.38
			S857.13,473.01,857.13,476.07z M847.78,476.07c0,2.47,0.25,4.23,0.76,5.29s1.32,1.58,2.43,1.58s1.93-0.54,2.45-1.61
			c0.52-1.07,0.77-2.83,0.77-5.26c0-2.43-0.26-4.18-0.77-5.27c-0.52-1.09-1.33-1.63-2.45-1.63s-1.93,0.53-2.43,1.6
			C848.03,471.83,847.78,473.6,847.78,476.07z"/>
		<path class="st11" d="M865.47,473.82c1.82,0,3.27,0.48,4.33,1.45c1.06,0.97,1.6,2.28,1.6,3.95c0,1.93-0.6,3.44-1.81,4.53
			c-1.21,1.09-2.93,1.63-5.16,1.63c-2.02,0-3.61-0.33-4.77-0.98v-2.64c0.67,0.38,1.44,0.67,2.3,0.88c0.87,0.21,1.67,0.31,2.41,0.31
			c1.31,0,2.31-0.29,3-0.88c0.68-0.59,1.03-1.44,1.03-2.58c0-2.16-1.38-3.24-4.14-3.24c-0.39,0-0.87,0.04-1.44,0.12
			c-0.57,0.08-1.07,0.17-1.5,0.27l-1.3-0.77l0.69-8.84h9.41v2.59h-6.85l-0.41,4.48c0.29-0.05,0.64-0.11,1.06-0.17
			C864.36,473.85,864.87,473.82,865.47,473.82z"/>
	</g>
</g>
</svg>
