<?xml version="1.0" encoding="utf-8"?>
<!-- Generator: Adobe Illustrator 24.0.1, SVG Export Plug-In . SVG Version: 6.00 Build 0)  -->
<svg version="1.1" id="Layer_1" focusable="false" xmlns="http://www.w3.org/2000/svg" xmlns:xlink="http://www.w3.org/1999/xlink"
	 x="0px" y="0px" viewBox="0 0 448 512" style="enable-background:new 0 0 448 512;" xml:space="preserve">
<style type="text/css">
	.st0{fill:#E8E8E8;}
</style>
<path class="st0" d="M203.1,132.2l13.9-14.5c5.9-6.2,15.4-6.2,21.2,0l121.5,127.2c5.9,6.2,5.9,16.1,0,22.2L238.1,394.4
	c-5.9,6.2-15.4,6.2-21.2,0l-13.9-14.5c-5.9-6.2-5.8-16.4,0.2-22.5l75.3-75.2H99c-8.3,0-15-7-15-15.7v-21c0-8.7,6.7-15.7,15-15.7
	h179.6l-75.3-75.2C197.2,148.5,197.1,138.4,203.1,132.2z"/>
</svg>
