<?xml version="1.0" encoding="utf-8"?>
<!-- Generator: Adobe Illustrator 24.0.1, SVG Export Plug-In . SVG Version: 6.00 Build 0)  -->
<svg version="1.1" id="Layer_1" focusable="false" xmlns="http://www.w3.org/2000/svg" xmlns:xlink="http://www.w3.org/1999/xlink"
	 x="0px" y="0px" viewBox="0 0 448 512" style="enable-background:new 0 0 448 512;" xml:space="preserve">
<style type="text/css">
	.st0{fill:#E8E8E8;}
</style>
<path class="st0" d="M240.7,121.7l-13.9-14.5c-5.9-6.2-15.4-6.2-21.2,0L84.2,234.4c-5.9,6.2-5.9,16.1,0,22.2l121.5,127.3
	c5.9,6.2,15.4,6.2,21.2,0l13.9-14.5c5.9-6.2,5.8-16.4-0.2-22.5l-75.3-75.2h179.6c8.3,0,15-7,15-15.7v-21c0-8.7-6.7-15.7-15-15.7
	H165.2l75.3-75.2C246.6,138,246.7,127.9,240.7,121.7z"/>
</svg>
