<?xml version="1.0" encoding="utf-8"?>
<!-- Generator: Adobe Illustrator 24.0.1, SVG Export Plug-In . SVG Version: 6.00 Build 0)  -->
<svg version="1.1" id="Capa_1" xmlns="http://www.w3.org/2000/svg" xmlns:xlink="http://www.w3.org/1999/xlink" x="0px" y="0px"
	 viewBox="0 0 512 512" style="enable-background:new 0 0 512 512;" xml:space="preserve">
<style type="text/css">
	.st0{fill:#F9C402;}
	.st1{fill:#D11124;}
	.st2{fill:none;}
</style>
<path class="st0" d="M307.1,23.2c14.5,4.9,27.7,12.2,39.5,21.6c31.5,25.1,49.5,63.2,49.5,104.5V313c0,4.2,3.4,7.6,7.6,7.6
	s7.6-3.4,7.6-7.6V149.2c0-45.9-20.1-88.3-55.2-116.3C328.7,11.1,295,0,256,0s-72.7,11.1-100.1,33c-35.1,28-55.2,70.4-55.2,116.3
	v163.8c0,4.2,3.4,7.6,7.6,7.6s7.6-3.4,7.6-7.6V149.2c0-41.2,18.1-79.3,49.5-104.4c11.9-9.5,25.1-16.7,39.5-21.6
	C204.9,23.2,251.3-28,307.1,23.2z"/>
<path class="st1" d="M307.1,23.2c-55.8-51.1-102.3,0-102.3,0C273-10.3,257.2,11.3,307.1,23.2z"/>
<path class="st2" d="M256,15.1c-23.5,0-43.4,15.3-50.4,36.5c0.6-0.3,1.2-0.6,1.8-0.8l-0.1,0c14.5-7.9,31-12.5,48.7-12.5
	c18.3,0,35.6,4.9,50.4,13.4C299.5,30.6,279.5,15.1,256,15.1z"/>
<path class="st2" d="M371.6,173.2v-13.1c0-7-5.7-12.6-12.6-12.6h-1.5v11.6v26.3v0.5h1.5C366,185.8,371.6,180.1,371.6,173.2z"/>
<path class="st2" d="M140.4,160.1v13.1c0,7,5.7,12.6,12.6,12.6h1.5v-0.5V159v-11.6H153C146,147.4,140.4,153.1,140.4,160.1z"/>
<path class="st2" d="M245.3,122.8l3.9-7.6c1.3-2.5,3.9-4.1,6.7-4.1s5.4,1.6,6.7,4.1l3.9,7.6c9.1,17.7,27.2,28.7,47.1,28.7h28.6
	v-11.6c0-47.6-38.7-86.3-86.3-86.3s-86.3,38.7-86.3,86.3v11.6h28.6C218.1,151.5,236.2,140.5,245.3,122.8z"/>
<path class="st2" d="M123.1,430.8c3.9-2.5,8-4.7,12.3-6.5v-11.6c0-4.2,3.4-7.6,7.6-7.6c4.2,0,7.6,3.4,7.6,7.6v6.7
	c6.2-1.4,12.6-2.1,19.1-2.1c7.4,0,14.8,0.9,21.9,2.7c34.9,8.8,55.1,25.6,64.5,35.3c9.3-9.8,29.6-26.5,64.5-35.3
	c7.2-1.8,14.6-2.7,21.9-2.7c6.5,0,12.9,0.7,19.1,2.1v-6.7c0-4.2,3.4-7.6,7.6-7.6s7.6,3.4,7.6,7.6v11.6c4.3,1.8,8.4,4,12.3,6.5
	c5.4,3.5,11,5.3,16.5,5.3c15.4,0,24.7-4.3,28.8-6.7v-12.5c0-34.6-24.6-64.7-58.4-71.7l-82.5-17c-3.5-0.7-6-3.8-6-7.4v-38.7
	c-9.9,3.2-20.4,5-31.3,5s-21.4-1.7-31.3-5v38.7c0,3.6-2.5,6.7-6,7.4l-82.5,17c-33.8,7-58.4,37.1-58.4,71.7v11.5v1.1
	c4.1,2.5,13.4,6.7,28.8,6.7C112.1,436,117.7,434.2,123.1,430.8z"/>
<path class="st2" d="M342.3,185.3v-18.7h-28.6c-23.7,0-45.4-12.1-57.8-32c-12.4,19.9-34.1,32-57.8,32h-28.6v18.7
	c0,47.6,38.7,86.3,86.3,86.3C303.6,271.6,342.3,232.9,342.3,185.3z"/>
<path class="st2" d="M77.8,484.9v11.9h57.6v-12.3c-7,2.5-16.8,5-28.8,5C94,489.5,84.5,487.4,77.8,484.9z"/>
<path class="st2" d="M434.2,468.4V446c-6.8,2.7-16.3,5.1-28.8,5.1c-8.5,0-16.8-2.6-24.7-7.6c-11.3-7.3-24.5-11.1-38.3-11.1
	c-6.1,0-12.3,0.8-18.2,2.3c-44.4,11.2-61.7,36.3-61.9,36.6c-1.4,2.1-3.8,3.4-6.3,3.4s-4.9-1.3-6.3-3.4c-0.1-0.2-17.9-25.5-61.9-36.6
	c-6-1.5-12.1-2.3-18.2-2.3c-13.8,0-27.1,3.8-38.3,11.1c-7.9,5.1-16.2,7.6-24.7,7.6c-12.5,0-22-2.4-28.8-5.1v22.4
	c4.3,2.2,13.7,6,28.8,6c19.4,0,32.1-8,32.2-8.1c2.3-1.5,5.3-1.6,7.8-0.3c2.4,1.3,4,3.9,4,6.6v24.2h211.1v-24.2c0-2.8,1.5-5.4,4-6.7
	c2.5-1.3,5.4-1.2,7.8,0.4c0.1,0.1,12.7,8.1,32.2,8.1C420.5,474.4,429.9,470.7,434.2,468.4z"/>
<path class="st2" d="M376.7,484.5v12.3h57.6v-11.9c-6.7,2.4-16.2,4.6-28.8,4.6C393.5,489.5,383.7,487.1,376.7,484.5z"/>
<path d="M434.2,429.3c-4.1,2.5-13.4,6.7-28.8,6.7c-5.5,0-11.1-1.8-16.5-5.3c-3.9-2.5-8-4.7-12.3-6.5v-11.6c0-4.2-3.4-7.6-7.6-7.6
	s-7.6,3.4-7.6,7.6v6.7c-6.2-1.4-12.6-2.1-19.1-2.1c-7.4,0-14.8,0.9-21.9,2.7c-34.9,8.8-55.1,25.6-64.5,35.3
	c-9.3-9.8-29.6-26.5-64.5-35.3c-7.2-1.8-14.6-2.7-21.9-2.7c-6.5,0-12.9,0.7-19.1,2.1v-6.7c0-4.2-3.4-7.6-7.6-7.6
	c-4.2,0-7.6,3.4-7.6,7.6v11.6c-4.3,1.8-8.3,4-12.3,6.5c-5.4,3.5-11,5.3-16.5,5.3c-15.4,0-24.7-4.3-28.8-6.7
	c-6.2,1-11.9-3.9-14.3-6.1l-0.8-0.4v10.3v39.4v31.8c0,4.2,3.4,7.6,7.6,7.6h371.6c4.2,0,7.6-3.4,7.6-7.6v-31.8v-39.4v-11.7
	C443.6,429.8,434.2,429.3,434.2,429.3z M135.3,496.9H77.8v-11.9c6.7,2.4,16.2,4.6,28.8,4.6c11.9,0,21.8-2.5,28.8-5V496.9z
	 M365.5,465.9c-2.5,1.3-4,3.9-4,6.7v24.2H150.5l0,0l0,0v-24.2c0-2.8-1.5-5.3-4-6.6c-2.4-1.3-5.4-1.2-7.8,0.3
	c-0.1,0.1-12.8,8.1-32.2,8.1c-15.1,0-24.5-3.7-28.8-6V446c6.8,2.7,16.3,5.1,28.8,5.1c8.5,0,16.8-2.6,24.7-7.6
	c11.3-7.3,24.5-11.1,38.3-11.1c6.1,0,12.3,0.8,18.2,2.3c44,11.1,61.7,36.4,61.9,36.6c1.4,2.1,3.8,3.4,6.3,3.4c2.5,0,4.9-1.3,6.3-3.4
	c0.2-0.3,17.5-25.4,61.9-36.6c6-1.5,12.1-2.3,18.2-2.3c13.8,0,27,3.8,38.3,11.1c7.9,5.1,16.2,7.6,24.7,7.6c12.5,0,22-2.4,28.8-5.1
	v22.4c-4.4,2.3-13.8,6-28.8,6c-19.4,0-32.1-8-32.2-8.1C371,464.8,368,464.6,365.5,465.9z M434.2,496.9h-57.6v-12.3
	c7,2.5,16.9,5,28.8,5c12.6,0,22.1-2.2,28.8-4.6V496.9z"/>
<path d="M378.9,330.2l-76.4-15.8v-38.9c28.2-14.6,48.8-42.1,53.8-74.6h2.7c15.3,0,27.8-12.5,27.8-27.8v-13.1
	c0-15.3-12.5-27.8-27.8-27.8h-1.8c-2-26.8-14.4-50.6-33.1-67.6l-17.6-12.8c-14.9-8.5-32.1-13.4-50.4-13.4
	c-17.6,0-34.2,4.5-48.7,12.5l-19.4,13.8c-18.8,17-31.1,40.9-33.1,67.6H153c-15.3,0-27.8,12.5-27.8,27.8v13.1
	c0,15.3,12.5,27.8,27.8,27.8h2.7c5.1,32.5,25.6,60,53.8,74.6v38.9l-76.4,15.8c-40.8,8.4-70.5,44.8-70.5,86.5v5.7
	c0.2,0.2,0.5,0.4,0.8,0.8l14.3,6.1v-1.1v-11.5c0-34.6,24.6-64.7,58.4-71.7l82.5-17c3.5-0.7,6-3.8,6-7.4v-38.7c9.9,3.2,20.4,5,31.3,5
	c10.9,0,21.4-1.7,31.3-5v38.7c0,3.6,2.5,6.7,6,7.4l82.5,17c33.8,7,58.4,37.1,58.4,71.7v12.5l15.1-7.8v-4.7
	C449.4,375,419.7,338.6,378.9,330.2z M357.5,185.3v-26.3v-11.6h1.5c7,0,12.6,5.7,12.6,12.6v13.1c0,7-5.7,12.6-12.6,12.6h-1.5V185.3z
	 M154.5,159.1v26.3v0.5H153c-7,0-12.6-5.7-12.6-12.6v-13.1c0-7,5.7-12.6,12.6-12.6h1.5V159.1z M169.7,139.9
	c0-47.6,38.7-86.3,86.3-86.3s86.3,38.7,86.3,86.3v11.6h-28.6c-19.9,0-38-11-47.1-28.7l-3.9-7.6c-1.3-2.5-3.9-4.1-6.7-4.1
	s-5.4,1.6-6.7,4.1l-3.9,7.6c-9.1,17.7-27.2,28.7-47.1,28.7h-28.6L169.7,139.9L169.7,139.9z M256,271.6c-47.6,0-86.3-38.7-86.3-86.3
	v-18.7h28.6c23.7,0,45.4-12.1,57.8-32c12.4,19.9,34.1,32,57.8,32h28.6v18.7C342.3,232.9,303.6,271.6,256,271.6z"/>
<path class="st1" d="M205.6,51.6c7-21.1,26.9-36.5,50.4-36.5c23.5,0,43.5,15.4,50.4,36.7c0,0,14,7.7,17.6,12.8
	c-0.8-15.8-7.1-30.3-16.9-41.5c-49.9-11.9-34.1-33.5-102.3,0c-9.9,11.2-16.1,25.6-16.9,41.5C187.9,64.7,192.8,57.8,205.6,51.6z"/>
<path d="M62.6,422.9v-0.4C62.2,422.1,62.2,422.1,62.6,422.9z"/>
<path d="M62.6,422.5v0.4l0.8,0.4C63.1,422.9,62.8,422.6,62.6,422.5z"/>
<path d="M77.8,429.3l-14.3-6.1C65.8,425.4,71.6,430.3,77.8,429.3z"/>
<path d="M449.4,421.5l-15.1,7.8C434.2,429.3,443.6,429.8,449.4,421.5z"/>
<path d="M205.6,51.6c0,0.1-0.1,0.1-0.1,0.2c0.6-0.3,1.2-0.7,1.8-1l0.1,0C206.8,51.1,206.2,51.3,205.6,51.6z"/>
<path d="M205.6,51.8c0-0.1,0.1-0.1,0.1-0.2c-12.8,6.2-17.7,13-17.7,13l19.4-13.8C206.8,51.2,206.2,51.5,205.6,51.8z"/>
<path d="M306.4,51.8l17.6,12.9C320.4,59.5,306.4,51.8,306.4,51.8z"/>
</svg>
