<?xml version="1.0" encoding="utf-8"?>
<!-- Generator: Adobe Illustrator 24.0.1, SVG Export Plug-In . SVG Version: 6.00 Build 0)  -->
<svg version="1.1" id="Layer_5" xmlns="http://www.w3.org/2000/svg" xmlns:xlink="http://www.w3.org/1999/xlink" x="0px" y="0px"
	 viewBox="0 0 512 512" style="enable-background:new 0 0 512 512;" xml:space="preserve">
<style type="text/css">
	.st0{fill:#FFFFFF;}
</style>
<path class="st0" d="M464,40h-8v-8c0-13.2-10.8-24-24-24H272c-13.2,0-24,10.8-24,24v8h-8c-22.1,0-40,17.9-40,40v144
	c0,2.7,0.3,5.4,0.8,8H56c-8.8,0-16,7.2-16,16v128c0,8.8,7.2,16,16,16h208c8.8,0,16-7.2,16-16V264h184c22.1,0,40-17.9,40-40V80
	C504,57.9,486.1,40,464,40z M488,80v72H352c-13.2,0-24-10.8-24-24V56h136C477.2,56,488,66.8,488,80z M440,32v8H312V24h120
	C436.4,24,440,27.6,440,32z M264,32c0-4.4,3.6-8,8-8h24v16h-32V32z M160,328c-13.2,0-24-10.8-24-24s10.8-24,24-24s24,10.8,24,24
	S173.2,328,160,328z M144,344h32c19.3,0,35.5,13.8,39.2,32H104.8C108.5,357.8,124.7,344,144,344z M264,376h-32.6
	c-3.2-22.4-19.7-40.4-41.1-46.1c6-7,9.8-16,9.8-25.9c0-22.1-17.9-40-40-40s-40,17.9-40,40c0,9.9,3.8,18.9,9.8,25.9
	c-21.5,5.7-37.9,23.7-41.1,46.1H56V248h152v-0.2c7.3,9.8,18.9,16.2,32,16.2h24V376z M464,248H240c-13.2,0-24-10.8-24-24V80
	c0-13.2,10.8-24,24-24h72v72c0,22.1,17.9,40,40,40h136v56C488,237.2,477.2,248,464,248z"/>
<path class="st0" d="M408,136c17.6,0,32-14.4,32-32s-14.4-32-32-32s-32,14.4-32,32S390.4,136,408,136z M408,88c8.8,0,16,7.2,16,16
	s-7.2,16-16,16s-16-7.2-16-16S399.2,88,408,88z"/>
<path class="st0" d="M334,384h-16c-10.4,0-19.2,6.7-22.5,16H214v-8h-16v32h-80v-32h-16v32H86c-8.8,0-16,7.2-16,16v16
	c0,8.8,7.2,16,16,16h144c8.8,0,16-7.2,16-16v-16c0-8.8-7.2-16-16-16h-16v-8h81.5c3.3,9.3,12.1,16,22.5,16h16c13.2,0,24-10.8,24-24
	S347.2,384,334,384z M230,456H86v-16h144L230,456z M334,416h-16c-4.4,0-8-3.6-8-8s3.6-8,8-8h16c4.4,0,8,3.6,8,8S338.4,416,334,416z"
	/>
<path class="st0" d="M296,72h-64v64h64V72z M280,120h-32V88h32V120z"/>
<path class="st0" d="M232,152h16v16h-16V152z"/>
<path class="st0" d="M264,152h16v16h-16V152z"/>
<path class="st0" d="M448,184c-13.2,0-24,10.8-24,24s10.8,24,24,24s24-10.8,24-24S461.2,184,448,184z M448,216c-4.4,0-8-3.6-8-8
	s3.6-8,8-8s8,3.6,8,8S452.4,216,448,216z"/>
<path class="st0" d="M376,184H248c-8.8,0-16,7.2-16,16v16c0,8.8,7.2,16,16,16h128c8.8,0,16-7.2,16-16v-16
	C392,191.2,384.8,184,376,184z M328,200v16h-32v-16H328z M248,200h32v16h-32V200z M344,216v-16h32l0,16H344z"/>
<path class="st0" d="M72,264h16v16H72V264z"/>
<path class="st0" d="M72,296h16v16H72V296z"/>
<path class="st0" d="M72,328h16v16H72V328z"/>
<path class="st0" d="M232,344h16v16h-16V344z"/>
<path class="st0" d="M232,312h16v16h-16V312z"/>
<path class="st0" d="M232,280h16v16h-16V280z"/>
</svg>
