<?xml version="1.0" encoding="utf-8"?>
<!-- Generator: Adobe Illustrator 24.0.1, SVG Export Plug-In . SVG Version: 6.00 Build 0)  -->
<svg version="1.1" id="Capa_1" xmlns="http://www.w3.org/2000/svg" xmlns:xlink="http://www.w3.org/1999/xlink" x="0px" y="0px"
	 viewBox="0 0 496 496" style="enable-background:new 0 0 496 496;" xml:space="preserve">
<style type="text/css">
	.st0{fill:#FFFFFF;}
</style>
<g>
	<g>
		<g>
			<g>
				<g>
					<path class="st0" d="M282.1,123.9h-27.7L248,94.1c-2.7-12.7-13.4-21.6-26-21.6H126c-12.6,0-23.2,8.9-26,21.6l-6.4,29.8h-6.6
						v-12.7c0-7.2-5.6-13-12.5-13H34.1c-6.9,0-12.5,5.8-12.5,13v12.7h-0.9c-11.3,0-20.5,9.6-20.5,21.3v144.3
						c0,11.8,9.2,21.3,20.5,21.3h21h74.2c16.8,11.3,36.7,17.8,58.1,17.8s41.4-6.6,58.1-17.8h49.9c11.3,0,20.5-9.6,20.5-21.3V145.3
						C302.6,133.5,293.4,123.9,282.1,123.9z M111.6,96.8c1.5-7.1,7.4-12,14.4-12h96.1c7,0,12.9,4.9,14.4,12l5.8,27.2h-10.1
						c-16.8-11.3-36.7-17.8-58.1-17.8s-41.4,6.6-58.1,17.8h-10.1L111.6,96.8z M33.4,111.2c0-0.4,0.3-0.7,0.7-0.7h40.5
						c0.4,0,0.7,0.3,0.7,0.7v12.7H33.4V111.2z M47.6,298.6V232c0-3.4-2.6-6.1-5.9-6.1c-3.3,0-5.9,2.7-5.9,6.1v66.6H20.7
						c-4.8,0-8.7-4.1-8.7-9V145.3c0-5,3.9-9,8.7-9h6.8h53.8h17.2h2.4c-20.9,20.3-34,49.2-34,81.2s13.1,60.9,34,81.2H47.6z
						 M228.6,298.6c-7,5.1-14.8,9.3-23,12.3c-9.9,3.6-20.5,5.6-31.5,5.6c-11,0-21.6-2-31.5-5.6c-8.2-3-16-7.2-23-12.3
						c-24.7-17.9-40.9-47.6-40.9-81.2s16.2-63.3,40.9-81.2c7-5.1,14.8-9.3,23-12.3c9.9-3.6,20.5-5.6,31.5-5.6c11,0,21.6,2,31.5,5.6
						c8.2,3,16,7.2,23,12.3c24.7,17.9,40.9,47.6,40.9,81.2S253.3,280.7,228.6,298.6z M290.8,289.6c0,5-3.9,9-8.7,9h-34.8
						c20.9-20.3,34-49.2,34-81.2s-13.1-60.9-34-81.2h2.4h32.4c4.8,0,8.7,4.1,8.7,9V289.6L290.8,289.6z"/>
				</g>
			</g>
			<g>
				<g>
					<path class="st0" d="M174,136.9c-42.8,0-77.6,36.1-77.6,80.5c0,44.4,34.8,80.5,77.6,80.5c6.2,0,12.4-0.8,18.4-2.3
						c3.2-0.8,5.1-4.1,4.3-7.4c-0.8-3.3-4-5.3-7.1-4.5c-5.1,1.3-10.3,1.9-15.6,1.9c-36.3,0-65.7-30.6-65.7-68.2s29.5-68.2,65.7-68.2
						s65.7,30.6,65.7,68.2c0,13.7-3.9,26.9-11.3,38.2c-1.8,2.8-1.1,6.6,1.6,8.5c2.7,1.9,6.4,1.2,8.2-1.6
						c8.7-13.3,13.3-28.9,13.3-45.1C251.6,173,216.8,136.9,174,136.9z"/>
				</g>
			</g>
			<g>
				<g>
					<path class="st0" d="M41.7,157.4c-12.1,0-22,10.2-22,22.8c0,12.6,9.9,22.8,22,22.8s22-10.2,22-22.8
						C63.7,167.6,53.8,157.4,41.7,157.4z M41.7,190.8c-5.6,0-10.2-4.7-10.2-10.6c0-5.8,4.6-10.6,10.2-10.6s10.2,4.7,10.2,10.6
						C51.9,186.1,47.3,190.8,41.7,190.8z"/>
				</g>
			</g>
		</g>
		<g>
			<g>
				<path class="st0" d="M219.5,275.6c-0.1-0.4-0.2-0.8-0.3-1.1c-0.1-0.4-0.3-0.7-0.5-1.1c-0.2-0.3-0.5-0.6-0.7-0.9
					c-0.3-0.3-0.6-0.5-0.9-0.8c-0.3-0.2-0.7-0.4-1-0.6s-0.7-0.3-1.1-0.3c-0.8-0.2-1.5-0.2-2.3,0c-0.4,0.1-0.8,0.2-1.1,0.3
					c-0.4,0.2-0.7,0.3-1,0.6c-0.3,0.2-0.6,0.5-0.9,0.8c-0.3,0.3-0.5,0.6-0.7,0.9c-0.2,0.3-0.4,0.7-0.5,1.1c-0.1,0.4-0.3,0.8-0.3,1.1
					c-0.1,0.4-0.1,0.8-0.1,1.2s0,0.8,0.1,1.2s0.2,0.8,0.3,1.1c0.1,0.4,0.3,0.7,0.5,1.1c0.2,0.3,0.5,0.6,0.7,0.9
					c0.3,0.3,0.6,0.5,0.9,0.8c0.3,0.2,0.7,0.4,1,0.6s0.7,0.3,1.1,0.3c0.4,0.1,0.8,0.1,1.2,0.1c0.4,0,0.8,0,1.2-0.1
					c0.4-0.1,0.8-0.2,1.1-0.3c0.4-0.2,0.7-0.3,1-0.6c0.3-0.2,0.6-0.5,0.9-0.8c1.1-1.1,1.7-2.7,1.7-4.3
					C219.6,276.4,219.6,276,219.5,275.6z"/>
			</g>
		</g>
	</g>
	<g>
		<path class="st0" d="M483.3,462.8l-19.9-12.1c12.3-8.8,19.5-23.2,19.5-39.1c0-14.1-5.6-26.9-15.4-35.8l16.2-9.9
			c6.2-3.8,8.9-11.2,6.9-18.4c-2-7.2-8.2-11.8-15.3-11.4l-67.5,4c-6.3,0.4-11.4,4.8-13.4,10.8h-95.2c-3-4.7-8.1-7.7-13.8-7.7
			c-5.7,0-10.8,3.1-13.8,7.7h-38.1c-2.8,0-5.1,2.4-5.1,5.4s2.3,5.4,5.1,5.4h35.1v105.3h-81.4c-2.7,0-4.8-2.3-4.8-5.1v-95.1
			c0-2.8,2.2-5.1,4.8-5.1h22.4c2.8,0,5.1-2.4,5.1-5.4c0-3-2.3-5.4-5.1-5.4h-22.4c-7.3,0-13.4,5.5-14.8,12.9h-15.9
			c-8.3,0-15.1,7.2-15.1,16v69.3c0,8.8,6.8,16,15.1,16h15.9c1.4,7.3,7.5,12.9,14.8,12.9h83.3c2.8,5.7,8.4,9.6,14.8,9.6h0
			c6.5,0,12.1-3.9,14.8-9.6h94.3c2,5.7,7.1,10,13.2,10.4l67.1,4.4c0.3,0,0.7,0,1,0c6.7,0,12.4-4.5,14.4-11.4
			C492.3,473.9,489.5,466.5,483.3,462.8z M151.8,448.9v-69.3c0-2.8,2.2-5.1,4.8-5.1h15.7V454h-15.7
			C153.9,454,151.8,451.7,151.8,448.9z M302.2,361.6h52.2v105.3h-52.2V361.6z M285.5,476.5L285.5,476.5c-3.6,0-6.5-3.1-6.5-6.9
			V360.8c0-3.8,2.9-6.9,6.5-6.9c3.6,0,6.5,3.1,6.5,6.9v108.9C291.9,473.4,289,476.5,285.5,476.5z M480.4,478.1
			c-0.3,0.9-1.4,3.9-4.9,3.6l-67.1-4.4c-2.5-0.2-4.5-2.4-4.5-5.1v-45.5c0-3-2.3-5.4-5.1-5.4c-2.8,0-5.1,2.4-5.1,5.4v40.2h-29V361.6
			h29v39.7c0,3,2.3,5.4,5.1,5.4c2.8,0,5.1-2.4,5.1-5.4V356c0-2.7,2-4.9,4.6-5.1l67.5-4c3.5-0.2,4.6,2.7,4.9,3.6
			c0.3,0.9,0.8,4-2.2,5.9l-23.1,14.1c-1.6,1-2.6,2.8-2.6,4.7c0,1.9,1,3.7,2.6,4.7c10.8,6.6,17.2,18.4,17.2,31.6
			c0,13.2-6.4,25-17.2,31.6l-4.8,2.9c-1.6,1-2.6,2.8-2.6,4.7c0,1.9,1,3.7,2.6,4.7l27.4,16.8C481.2,474.1,480.6,477.1,480.4,478.1z"
			/>
		<g>
			<path class="st0" d="M383,451.3h-7c-2.8,0-5.1,2.4-5.1,5.4c0,3,2.3,5.4,5.1,5.4h7c2.8,0,5.1-2.4,5.1-5.4
				C388.1,453.7,385.8,451.3,383,451.3z"/>
			<path class="st0" d="M383,430.2h-7c-2.8,0-5.1,2.4-5.1,5.4c0,3,2.3,5.4,5.1,5.4h7c2.8,0,5.1-2.4,5.1-5.4
				C388.1,432.6,385.8,430.2,383,430.2z"/>
			<path class="st0" d="M383,409.1h-7c-2.8,0-5.1,2.4-5.1,5.4c0,3,2.3,5.4,5.1,5.4h7c2.8,0,5.1-2.4,5.1-5.4
				C388.1,411.5,385.8,409.1,383,409.1z"/>
			<path class="st0" d="M383,388h-7c-2.8,0-5.1,2.4-5.1,5.4c0,3,2.3,5.4,5.1,5.4h7c2.8,0,5.1-2.4,5.1-5.4
				C388.1,390.5,385.8,388,383,388z"/>
			<path class="st0" d="M383,366.9h-7c-2.8,0-5.1,2.4-5.1,5.4c0,3,2.3,5.4,5.1,5.4h7c2.8,0,5.1-2.4,5.1-5.4
				C388.1,369.4,385.8,366.9,383,366.9z"/>
		</g>
	</g>
	<g>
		<g>
			<g>
				<path class="st0" d="M460.9,37.6l-5.8,10.1c-1.5,2.7-4,4.2-6.8,4.2c-2.4,0-4.7-1.2-6.3-3.4l-11.9-16.7
					c-3.9-5.5-9.6-8.6-15.7-8.6h-33.8c-6.1,0-11.8,3.1-15.7,8.6L353,48.6c-1.5,2.2-3.8,3.4-6.3,3.4c-2.7,0-5.3-1.6-6.8-4.2
					l-5.8-10.1h-14.5v76.5h155.6V37.6H460.9z M467.1,104.6H327.9V47.2h1.9l3.3,5.9c3,5.3,8.1,8.5,13.6,8.5c4.9,0,9.4-2.5,12.5-6.9
					L371.2,38c2.3-3.3,5.8-5.2,9.4-5.2h33.8c3.7,0,7.1,1.9,9.4,5.2l11.9,16.7c3.1,4.4,7.7,6.9,12.5,6.9c5.5,0,10.6-3.2,13.6-8.5
					l3.3-5.9h1.9V104.6z"/>
				<path class="st0" d="M459,142.9h-8.2v-19.1h-8.2v19.1h-8.2v-19.1h-8.2v19.1H418v-19.1h-8.2v19.1h-8.2v-19.1h-8.2v19.1h-8.2
					v-19.1h-8.2v19.1h-8.2v-19.1h-8.2v19.1h-8.2v-19.1h-8.2v19.1h-8.2v-19.1h-8.2v115.9l8.2,19.1v32.4H459v-32.4l8.2-19.1V123.7H459
					V142.9z M450.8,281.6H344.3v-19.1h106.5V281.6z M452.3,252.9H342.7l-4.1-9.6h117.8L452.3,252.9z M459,233.8H336.1v-81.3H459
					V233.8z"/>
				<polygon class="st0" points="438.5,310.3 356.6,310.3 356.6,300.7 348.4,300.7 348.4,319.9 446.7,319.9 446.7,300.7 
					438.5,300.7 				"/>
				<path class="st0" d="M442.6,185.9h-90.1v38.3h90.1V185.9z M434.4,214.6h-73.7v-19.1h49.1v9.6h8.2v-9.6h16.4V214.6z"/>
			</g>
		</g>
	</g>
</g>
</svg>
