<?xml version="1.0" encoding="utf-8"?>
<!-- Generator: Adobe Illustrator 24.0.1, SVG Export Plug-In . SVG Version: 6.00 Build 0)  -->
<svg version="1.1" id="Capa_1" xmlns="http://www.w3.org/2000/svg" xmlns:xlink="http://www.w3.org/1999/xlink" x="0px" y="0px"
	 viewBox="0 0 496 496" style="enable-background:new 0 0 496 496;" xml:space="preserve">
<style type="text/css">
	.st0{fill:#FFFFFF;}
</style>
<path class="st0" d="M463.1,65.3c-10.4,0-19.2,6.7-22.5,16h-17.5c0-13.2-10.8-24-24-24h-8c0-10.4-6.7-19.2-16-22.5V1.3h-48v33.5
	c-9.3,3.3-16,12.1-16,22.5v73.1c-4,1.2-7.7,3.2-10.6,6.2l-57.7,57.7c-4.5,4.5-10.6,7-17,7h-17c-6.3-13.8-16.7-24.9-29.7-31.8
	c30.6-13.8,51.9-44.5,51.9-80.2c0-48.5-39.5-88-88-88s-88,39.5-88,88c0,37.4,23.5,69.4,56.5,82.1c-19.5,12-32.5,33.4-32.5,57.9v108
	h8v160h64h8h72v-90.8c0-15.3-4-30.4-11.6-43.7l-14.6-25.6h10.2v-80h20.1c15,0,29-5.8,39.6-16.4l50.1-50.1c0.7,0.3,1.5,0.6,2.2,0.9
	v49.6h-16v48h16v48v5.9l-69.4,123.3c-1.7,3.1-2.6,6.6-2.6,10.1c0,11.4,9.3,20.7,20.7,20.7h3.9c7.5,0,14.4-4.1,18.1-10.6l29.4-52.9
	v39.5c0,13.2,10.8,24,24,24s24-10.8,24-24v-39.5l29.4,52.9c3.6,6.6,10.6,10.6,18.1,10.6h3.9c11.4,0,20.7-9.3,20.7-20.7
	c0-3.5-0.9-7-2.7-10.1l-69.3-123.3v-5.9v-48h16v-48h-16v-49.5c9.3-3.3,16-12.1,16-22.5h8c13.2,0,24-10.8,24-24h17.5
	c3.3,9.3,12.1,16,22.5,16c13.2,0,24-10.8,24-24v-48C487.1,76.1,476.4,65.3,463.1,65.3z M327.1,400.8l-43.4,78.1
	c-0.8,1.5-2.4,2.4-4.1,2.4h-3.9c-2.6,0-4.7-2.1-4.7-4.7c0-0.8,0.2-1.6,0.6-2.3l55.4-98.5V400.8z M343.1,17.3h16v16h-16V17.3z
	 M343.1,193.3h16v48h-16V193.3z M338,177.3c3.3-4.3,5.2-9.6,5.2-15v15H338z M327.1,57.3c0-4.4,3.6-8,8-8h8v105
	c0-10.6-6.7-19.6-16-23.2V57.3z M71.1,89.3c0-39.7,32.3-72,72-72s72,32.3,72,72s-32.3,72-72,72S71.1,129,71.1,89.3z M95.1,229.3
	c0-28.7,23.3-52,52-52c17.9,0,34.2,9.4,43.6,24h-51.6c-15.4,0-28,12.6-28,28s12.6,28,28,28h60v64h-104V229.3z M151.1,481.3h-48v-144
	h11.6l30.4,48.6c4,6.4,6.1,13.7,6.1,21.2V481.3z M205.7,370.8c6.2,10.9,9.5,23.2,9.5,35.7v74.8h-48v-74.2c0-10.5-2.9-20.8-8.5-29.7
	l-25.1-40.1h52.9L205.7,370.8z M324.5,168.6l-61,61c-7.6,7.6-17.6,11.7-28.3,11.7h-44.1h-52c-6.6,0-12-5.4-12-12c0-6.6,5.4-12,12-12
	l50.5,0v0h2.1h2v0h32.1c10.7,0,20.7-4.2,28.3-11.7l57.7-57.7c1.7-1.7,4-2.6,6.3-2.6c4.9,0,9,4,9,9v8
	C327.1,164.6,326.2,166.9,324.5,168.6z M359.1,473.3c0,4.4-3.6,8-8,8c-4.4,0-8-3.6-8-8v-72h16V473.3z M359.1,385.3h-16v-32h16V385.3
	z M359.1,337.3h-16v-48h16V337.3z M430.5,474.3c0.4,0.7,0.6,1.5,0.6,2.3c0,2.6-2.1,4.7-4.7,4.7h-3.9c-1.7,0-3.3-0.9-4.1-2.4
	l-43.4-78.1v-25L430.5,474.3z M375.1,273.3h-48v-16h48V273.3z M375.1,169.3c0,4.4-3.6,8-8,8h-8v-128h8c4.4,0,8,3.6,8,8V169.3z
	 M407.1,145.3c0,4.4-3.6,8-8,8h-8v-80h8c4.4,0,8,3.6,8,8V145.3z M439.1,129.3h-16v-32h16V129.3z M471.1,137.3c0,4.4-3.6,8-8,8
	c-4.4,0-8-3.6-8-8v-48c0-4.4,3.6-8,8-8c4.4,0,8,3.6,8,8V137.3z"/>
</svg>
