<?xml version="1.0" encoding="utf-8"?>
<!-- Generator: Adobe Illustrator 24.0.1, SVG Export Plug-In . SVG Version: 6.00 Build 0)  -->
<svg version="1.1" id="Layer_1" xmlns="http://www.w3.org/2000/svg" xmlns:xlink="http://www.w3.org/1999/xlink" x="0px" y="0px"
	 viewBox="0 0 511 511" style="enable-background:new 0 0 511 511;" xml:space="preserve">
<style type="text/css">
	.st0{fill:#F9C402;}
	.st1{fill:#D11124;}
</style>
<path d="M298.1,273.5h-17V265c0-14.1-11.4-25.6-25.6-25.6h-59.6c-14.1,0-25.6,11.4-25.6,25.6v8.5h-51.1V265
	c0-14.1-11.4-25.6-25.5-25.6H68.1c-14.1,0-25.5,11.4-25.5,25.6v8.5C19.1,273.5,0,292.6,0,316.1v153.3C0,492.9,19.1,512,42.6,512
	h255.5c23.5,0,42.5-19.1,42.6-42.6V316.1C340.6,292.6,321.6,273.5,298.1,273.5z M187.4,265c0-4.7,3.8-8.5,8.5-8.5h59.6
	c4.7,0,8.5,3.8,8.5,8.5v8.5h-76.6V265z M59.6,265c0-4.7,3.8-8.5,8.5-8.5h25.5c4.7,0,8.5,3.8,8.5,8.5v8.5H59.6V265z M323.6,469.4
	c0,14.1-11.4,25.5-25.5,25.5H42.6c-14.1,0-25.5-11.4-25.5-25.5V316.1c0-14.1,11.4-25.5,25.5-25.5h255.5c14.1,0,25.5,11.4,25.5,25.5
	L323.6,469.4L323.6,469.4z"/>
<path d="M225.7,316.1c-44.7,0-80.9,36.2-80.9,80.9s36.2,80.9,80.9,80.9c44.7,0,80.9-36.2,80.9-80.9
	C306.5,352.4,270.4,316.2,225.7,316.1z M225.7,460.9c-35.3,0-63.9-28.6-63.9-63.9s28.6-63.9,63.9-63.9s63.9,28.6,63.9,63.9
	C289.5,432.3,261,460.9,225.7,460.9z"/>
<path d="M225.7,350.2c-25.9,0-46.8,21-46.8,46.8s21,46.8,46.8,46.8s46.8-21,46.8-46.8C272.5,371.1,251.6,350.2,225.7,350.2z
	 M225.7,426.8c-16.5,0-29.8-13.4-29.8-29.8s13.4-29.8,29.8-29.8s29.8,13.4,29.8,29.8S242.2,426.8,225.7,426.8z"/>
<path class="st0" d="M102.2,307.6H59.6c-14.1,0-25.5,11.4-25.5,25.5s11.4,25.5,25.5,25.5h42.6c14.1,0,25.6-11.4,25.6-25.5
	C127.8,319,116.3,307.6,102.2,307.6z M102.2,341.6H59.6c-4.7,0-8.5-3.8-8.5-8.5c0-4.7,3.8-8.5,8.5-8.5h42.6c4.7,0,8.5,3.8,8.5,8.5
	C110.7,337.8,106.9,341.6,102.2,341.6z"/>
<path class="st1" d="M412.3,10.3c-5.8-7.4-16.5-8.6-23.9-2.8L354.8,34c-0.8-7.9-7-14.2-14.9-15.1L187.7,1.1c-4.5-0.6-9,0.7-12.6,3.5
	s-5.9,6.9-6.4,11.4l-20.8,177.7c-0.5,4.5,0.8,9,3.6,12.5c2.8,3.6,6.9,5.9,11.4,6.4l151.9,17.8l25.5,32.3c2.8,3.5,6.9,5.8,11.4,6.4
	c4.5,0.5,9-0.8,12.5-3.6l140.3-110.9c3.5-2.8,5.8-6.9,6.4-11.4c0.5-4.5-0.8-9-3.6-12.6L412.3,10.3z M164.8,195.6L185.6,18
	l152.3,17.8l-1.5,12.6L317,63.9c-0.4-3.2-1.6-6.2-3.6-8.7c-2.8-3.6-6.9-5.8-11.4-6.3l-84.6-10c-4.5-0.5-9,0.8-12.5,3.6
	s-5.8,6.9-6.3,11.4l-9.9,84.5c-0.6,4.5,0.7,9.1,3.5,12.6c2.8,3.6,6.9,5.9,11.4,6.4l58.9,6.9l37.3,47.2L164.8,195.6z M248,118.4
	c-7.4,5.8-8.6,16.5-2.8,23.9l2.4,3l-42-4.9l9.9-84.6l84.6,10l-1.5,12.6L248,118.4z M353.6,252l-79.8-100.9c-0.1-0.1-0.2-0.2-0.3-0.4
	l-15-19l53.1-42c0.2-0.1,0.3-0.3,0.5-0.4l37.3-29.5c0.2-0.1,0.3-0.3,0.5-0.4l48.9-38.6L494,141.1L353.6,252z"/>
<path class="st1" d="M382.7,55.3l-66.8,52.8c-7.4,5.8-8.6,16.5-2.8,23.9l52.8,66.8c5.8,7.4,16.5,8.6,23.9,2.8l66.8-52.8
	c7.4-5.8,8.6-16.5,2.8-23.9l-52.8-66.8C400.8,50.7,390.1,49.5,382.7,55.3z M446.1,135.5l-66.8,52.9l-52.8-66.8l66.8-52.8
	L446.1,135.5z"/>
<path d="M42.6,384.2c-4.7,0-8.5,3.8-8.5,8.5v42.6c0,4.7,3.8,8.5,8.5,8.5c4.7,0,8.5-3.8,8.5-8.5v-42.6
	C51.1,388,47.3,384.2,42.6,384.2z"/>
<path d="M42.6,460.9c-4.7,0-8.5,3.8-8.5,8.5c0,4.7,3.8,8.5,8.5,8.5c4.7,0,8.5-3.8,8.5-8.5C51.1,464.7,47.3,460.9,42.6,460.9z"/>
</svg>
