<?xml version="1.0" encoding="utf-8"?>
<!-- Generator: Adobe Illustrator 24.0.1, SVG Export Plug-In . SVG Version: 6.00 Build 0)  -->
<svg version="1.1" id="Layer_1" xmlns="http://www.w3.org/2000/svg" xmlns:xlink="http://www.w3.org/1999/xlink" x="0px" y="0px"
	 viewBox="0 0 521.1 519.4" style="enable-background:new 0 0 521.1 519.4;" xml:space="preserve">
<style type="text/css">
	.st0{fill:#FFFFFF;}
</style>
<g>
	<path class="st0" d="M4.6,117.7c4.3-12.3,13-17.1,25.8-16.7c12.5,0.5,25,0.1,37.8,0.1c1.4-8.3,4.2-15.7,11.8-19.5
		c4.1-2.1,9.2-3.6,13.7-3.5c12.2,0.5,19.6,8.4,22.5,22.9c2.4,0,5,0,7.7,0c12.5,0.1,25-0.2,37.5,0.4c8.4,0.4,14.2,5.5,17.2,13.3
		c2.9,7.6,1.6,14.8-3.7,21.1c-4.5,5.3-10.4,7.4-17.3,7.4c-11.7,0-23.3,0-35,0c-2,0-4,0-6.4,0c0,5.8,0,11.2,0,17.3c1.7,0,3.4,0,5.2,0
		c9.3,0,18.7-0.1,28,0.1c4.5,0.1,7.3,2.9,7.5,7c0.2,4.3-2.6,7.5-7.2,8c-1.5,0.2-3,0.1-4.5,0.1c-28.7,0-57.3,0-86,0
		c-1.7,0-3.3-0.1-5,0.1c-5.7,0.7-10.2,5.3-10.7,10.9c-0.5,6.1,2.8,11.5,8.6,12.9c3.5,0.8,7.3,0.9,10.9,0.9c133,0,265.9,0,398.9,0
		c1.3,0,2.7,0,4-0.1c7.3-0.8,12-6.1,11.7-13.1c-0.3-6.7-5.4-11.5-12.6-11.6c-16.7-0.1-33.3-0.1-50-0.1c-77,0-154,0-230.9,0
		c-1.7,0-3.3,0.1-5-0.1c-4.3-0.5-7.3-3.6-7.3-7.5c0-4.1,3.1-7.4,7.7-7.5c4.2-0.2,8.3,0,12.5,0c69.3,0,138.6,0,207.9,0
		c1.6,0,3.3,0,5.2,0c0-5.9,0-11.3,0-17.3c-2.1,0-3.8,0-5.6,0c-12.2,0-24.3,0.1-36.5-0.1c-12.7-0.2-21.5-8.8-21.7-20.7
		c-0.1-12.1,8.7-21,21.6-21.3c12-0.2,24-0.1,36-0.1c2,0,3.9,0,5.8,0c4.5-16,12.3-23.3,24.4-23.2c12.1,0.1,19.6,7.2,24.1,23.2
		c6.9,0,14.1,0,21.2,0c5.5,0,11,0.3,16.5-0.1c12.8-0.8,21.5,4.4,25.8,16.6c0,3,0,6,0,9c-4.3,12.2-13,17.2-25.8,16.7
		c-12.5-0.5-25-0.1-37.9-0.1c0,5.7,0,11.1,0,17.3c4.1,0,8.2-0.1,12.3,0c15.6,0.2,27.4,11.9,27.6,27c0.2,15.3-11.2,27.3-26.7,27.9
		c-7.6,0.3-15.3,0.1-23.8,0.1c3.1,7.9,6.1,15.2,9,22.6c7.2,18.1,14.5,36.1,21.6,54.3c1.4,3.6,2.3,7.7,2.3,11.6
		c0.2,37.7,0.2,75.3,0,113c-0.1,16.4-12.8,27.1-27.8,23.8c-8.7-1.9-16.5-9.5-16.8-18.3c-0.6-18-0.5-36-0.4-54c0-4.4,3.5-7.2,7.6-7
		c4.6,0.2,7.1,3,7.3,7.3c0.3,7,0.1,14,0.2,21c0,8.5,0,17,0,25.5c0,7.4,2.4,10.7,7.5,10.7c4.9-0.1,7.2-3.4,7.2-10.4
		c0-24.3,0-48.7,0.1-73c0-2.8-0.3-5.7,0-8.5c2.2-22.6-2.4-43.7-12.2-64.2c-7.7-16.2-13.7-33.2-20.1-50c-1.3-3.3-2.9-4.7-6.5-4.4
		c-3.4,0.3-7,0.1-11.1,0.1c0.8,2.2,1.4,3.9,2.1,5.6c10.2,25.5,20.5,51,30.4,76.5c1.6,4.1,2.4,8.6,2.5,13c0.4,9.2,0.2,18.3,0.1,27.5
		c0,4.1-1.8,7.7-6,8c-2.6,0.2-5.8-1.7-8-3.5c-1.2-0.9-1.2-3.7-1.2-5.6c-0.1-7.5,0.3-15-0.2-22.5c-0.3-5-1-10.3-2.8-15
		c-9-23.3-18.4-46.4-27.7-69.6c-0.7-1.7-1.4-3.3-2.5-5.7c-5.3,12-10.3,23.4-15.2,34.8c-1.4,3.2-2.8,6.4-4.2,9.6
		c-9,20.2-24.7,30.5-46.7,30.6c-5.9,0-9.2,1.5-12.6,6.8c-27.3,43.5-91.3,42.1-117.2-2.5c-1.9-3.2-3.8-4.3-7.4-4.2
		c-24.7,0.7-42-10.2-51.4-33.4c-5-12.3-10.6-24.4-15.9-36.6c-0.6-1.5-1.4-2.9-2.4-4.9c-7.6,19-14.3,37.7-22.5,55.7
		c-8.1,17.7-11.3,35.6-10.6,55.1c1,27.3,0.3,54.7,0.2,82c0,13-7.2,21.8-18.9,23.9c-11.8,2-23.4-6-25.6-17.7c-0.5-2.4-0.6-5-0.6-7.5
		c0-37.2-0.2-74.3,0.1-111.5c0-4.7,1.3-9.6,3-14c9.1-23.3,18.5-46.4,27.7-69.6c0.6-1.5,1.2-3.1,2-5.3c-8.1,0-15.7,0.2-23.3-0.1
		c-11.3-0.4-19.9-5.7-24.6-16c-4.5-9.9-3.5-19.6,3.1-28.3c5.2-6.9,12.3-10.5,21.1-10.7c4.3-0.1,8.6,0,13.2,0c0-5.8,0-11.2,0-17.3
		c-4.4,0-8.7,0-12.9,0c-8.3,0-16.7-0.4-25,0.1c-12.8,0.7-21.5-4.4-25.8-16.7C4.6,123.7,4.6,120.7,4.6,117.7z M207.5,215.9
		c0,20.7-1.2,40.9,0.3,61c2,26.1,26.2,46.1,53.1,46c26.6-0.1,50.5-20.2,52.5-46.2c1.5-19.9,0.6-40,0.8-59.9c0-0.2-0.4-0.5-0.7-0.9
		C278.2,215.9,242.9,215.9,207.5,215.9z M111,215.7c-4.2,0-7.7,0.2-11.1-0.1c-3.5-0.3-5.2,1-6.5,4.4c-10,25.5-20.4,51-30.4,76.5
		c-1.1,2.9-1.8,6.1-1.8,9.2c-0.1,36.7-0.1,73.3-0.1,110c0,1.7,0,3.4,0.4,5c0.8,3.8,3.5,5.7,7.2,5.6c3.7-0.1,6.3-2.1,6.9-5.9
		c0.3-1.8,0.2-3.7,0.2-5.5c0-35-0.1-70,0.1-105c0-3.7,0.8-7.6,2.1-11.1c10.2-26,20.7-51.9,31.1-77.9
		C109.7,219.3,110.2,217.8,111,215.7z M192.1,216.1c-19,0-36.7,0-54.7,0c0.3,1.1,0.4,1.7,0.6,2.3c6.8,15.5,13.5,31.1,20.5,46.6
		c1.8,3.8,4.5,7.5,7.5,10.4c7.4,7.2,16.5,9.7,26,8.9C192.1,261.1,192.1,238.7,192.1,216.1z M329,215.9c0,23,0,45.6,0,68.1
		c14.3,1.8,27.8-5.9,34.1-20.1c6.6-14.9,13-29.9,19.5-44.8c0.4-1,0.5-2,0.9-3.3C365.5,215.9,347.8,215.9,329,215.9z M92,128
		C92,128,92,128,92,128c19,0,37.9,0.1,56.9,0c3.5,0,7,0.1,10.5-0.1c3.3-0.2,5.2-2.2,5.2-5.6c0.1-3.3-1.8-5.3-5-5.8
		c-1.6-0.2-3.3-0.2-5-0.2c-41.6,0-83.2,0-124.8,0c-1.8,0-4.1-0.5-5.4,0.4c-1.9,1.3-4.4,3.7-4.4,5.6c0,1.9,2.7,3.9,4.6,5.3
		c1,0.7,2.9,0.3,4.4,0.3C50,128,71,128,92,128z M429.1,128C429.1,128,429.1,128,429.1,128c21.3,0,42.6,0,63.9,0
		c1.3,0,3.1,0.3,3.9-0.3c1.8-1.5,4.3-3.6,4.2-5.2c-0.1-2-2.5-4.1-4.4-5.6c-0.9-0.8-2.9-0.3-4.4-0.3c-42.1,0-84.2-0.1-126.3-0.1
		c-1.8,0-4.1-0.4-5.4,0.5c-1.8,1.3-3.9,3.6-3.9,5.4c0,1.8,2.2,4.1,4,5.3c1.3,0.9,3.5,0.4,5.4,0.4C387.2,128,408.2,128,429.1,128z
		 M84,160.2c5.9,0,11.1,0,16.3,0c0-5.7,0-10.9,0-16.4c-5.6,0-10.9,0-16.3,0C84,149.5,84,154.7,84,160.2z M437.1,143.7
		c-5.6,0-10.9,0-16.1,0c0,5.9,0,11.2,0,16.4c5.7,0,10.9,0,16.1,0C437.1,154.5,437.1,149.2,437.1,143.7z M84,100.8c5.8,0,11,0,16.4,0
		c-0.7-5-3.6-7.4-8-7.6C88,93.2,85.1,95.6,84,100.8z M437,100.9c-1.5-5.6-4.4-8.1-8.8-7.5c-4.1,0.6-6.8,2.8-7.2,7.5
		C426.4,100.9,431.5,100.9,437,100.9z"/>
	<path class="st0" d="M300.4,267.3c0,21.6-17.5,39.2-39.1,39.2c-21.5,0-39.1-17.6-39.1-39.1c0-21.6,17.5-39.1,39-39.2
		C282.8,228.2,300.4,245.8,300.4,267.3z M261.4,243.5c-13.2-0.1-23.9,10.4-24.1,23.5c-0.2,13.3,10.5,24.2,23.8,24.3
		c13.1,0.1,23.9-10.5,24.1-23.6C285.4,254.4,274.8,243.6,261.4,243.5z"/>
</g>
</svg>
