<?xml version="1.0" encoding="iso-8859-1"?>
<!-- Generator: Adobe Illustrator 19.0.0, SVG Export Plug-In . SVG Version: 6.00 Build 0)  -->
<svg version="1.1" id="Capa_1" xmlns="http://www.w3.org/2000/svg" xmlns:xlink="http://www.w3.org/1999/xlink" x="0px" y="0px"
	 viewBox="0 0 512 512" style="enable-background:new 0 0 512 512;" xml:space="preserve">
<g>
	<g>
		<path d="M137.489,82.979h-0.125c-5.523,0-10,4.477-10,10s4.477,10,10,10h0.125c5.523,0,10-4.477,10-10
			S143.012,82.979,137.489,82.979z"/>
	</g>
</g>
<g>
	<g>
		<path d="M472,82.979H182.068c-5.523,0-10,4.477-10,10s4.477,10,10,10H472c0.518,0,1.027,0.039,1.535,0.078L445.592,131H315.15
			c-5.523,0-10,4.477-10,10s4.477,10,10,10h110.442L286.203,290.389c-16.654,16.654-43.752,16.655-60.406,0L38.465,103.057
			c0.508-0.039,1.017-0.078,1.535-0.078h53c5.523,0,10-4.477,10-10s-4.477-10-10-10H40c-22.056,0-40,17.944-40,40v266.042
			c0,22.056,17.944,40,40,40h432c22.056,0,40-17.944,40-40V122.979C512,100.923,494.056,82.979,472,82.979z M20,389.021V122.979
			c0-2.957,0.662-5.756,1.819-8.284l139.182,139.182L20.699,394.179C20.258,392.53,20,390.807,20,389.021z M472,409.021H40
			c-1.786,0-3.509-0.258-5.158-0.699L175.144,268.02l36.512,36.512C223.881,316.757,239.94,322.87,256,322.87
			s32.119-6.113,44.345-18.338l36.511-36.512l140.302,140.302C475.509,408.763,473.786,409.021,472,409.021z M492,389.021
			c0,1.786-0.258,3.509-0.699,5.158L350.999,253.878l139.182-139.183c1.157,2.528,1.819,5.327,1.819,8.284V389.021z"/>
	</g>
</g>
<g>
	<g>
		<path d="M273.3,131h-0.15c-5.523,0-10,4.477-10,10s4.477,10,10,10h0.15c5.523,0,10-4.477,10-10S278.823,131,273.3,131z"/>
	</g>
</g>
<g>
</g>
<g>
</g>
<g>
</g>
<g>
</g>
<g>
</g>
<g>
</g>
<g>
</g>
<g>
</g>
<g>
</g>
<g>
</g>
<g>
</g>
<g>
</g>
<g>
</g>
<g>
</g>
<g>
</g>
</svg>
