<svg id="Layer_1" data-name="Layer 1" xmlns="http://www.w3.org/2000/svg" viewBox="0 0 384 384"><title>focus-more</title><path d="M189.73.08h4.5c3.07,2,4,4.89,3.91,8.55-.15,11.46,0,22.92.06,34.39V55.74q0,6.28,0,12.56c0,.25,0,.49,0,.74v41.24c0,1.49-.11,3-.13,4.47-.07,6.57-3.47,8.89-9.77,6.66-1.9-1.87-2.45-4.12-2.44-6.76,0-14.19-.06-28.38-.1-42.58,0-1.25,0-2.51,0-3.76l0-10.52.08-1.48a.48.48,0,0,0,0-.61l0-50.37C186.22,2.9,188.12,1.6,189.73.08Z" style="fill:#fff"/><path d="M.08,194.26v-3.75a7.57,7.57,0,0,1,5.26-4.64L56,185.74h1.8l10.52,0h3.76c14.19.05,28.38.14,42.57.1a8.8,8.8,0,0,1,6.76,2.45c2.24,6.3-.09,9.71-6.66,9.78-1.49,0-3,.09-4.47.13H43c-11.47,0-22.93-.21-34.39-.07C5,198.22,2.13,197.33.08,194.26Z" style="fill:#fff"/><path d="M198.25,328.07c-.06,15.78-.2,31.57-.12,47.36,0,3.61-.87,6.47-3.9,8.52h-4.5c-3-2-4-4.85-3.91-8.5.16-11.15,0-22.31-.06-33.47V328.29q0-6.29,0-12.57c0-.24,0-.49,0-.73V274.5c0-1.73.11-3.46.13-5.2.07-7,4.41-9.49,10.55-6,1.42,1.89,1.65,4.05,1.65,6.35,0,14.35.07,28.7.11,43v3Q198.23,321.89,198.25,328.07Z" style="fill:#fff"/><path d="M381.55,197c-1.92,1.07-4,1.09-6.13,1.1q-23.71.06-47.42.17l-12.34,0h-3c-14.35,0-28.69-.12-43-.11-2.31,0-4.46-.24-6.36-1.65-3.5-6.14-1-10.49,6-10.57,1.74,0,3.47-.08,5.2-.13h67.47c11.16.05,22.31.22,33.47.07,3.64,0,6.45.88,8.49,3.91v4.5c-.88.07-.75.89-1,1.41Z" style="fill:#fff"/><path d="M379.58,13.5h0a15,15,0,0,0-8.34-6.74c-7.63-3.86-16.88-2.33-23.39,3.88A20.56,20.56,0,0,0,343.2,33.9c.05.47.11.94.16,1.42,1.88,2.35,3.19,5.21,6,6.78.05.22.11.43.17.65,11.34,7.52,21.31,4.11,27.45-1.17,3.4-2.92,4.83-7,6.93-10.76v-9C382.31,19.12,382.1,15.71,379.58,13.5Zm-10.12,9.83c1.31,7.19-3,11.24-9.62,9.09l-.71.08c-3.38-2.2-4.29-5.39-3.68-9.19a2.41,2.41,0,0,0-.83.14,2.41,2.41,0,0,1,.83-.14,13.58,13.58,0,0,1,4.44-4.48A19.46,19.46,0,0,1,361,17a19.46,19.46,0,0,0-1.11,1.81c3.53-.56,6.72,0,9.09,3a3.85,3.85,0,0,0,1.52-.57,3.85,3.85,0,0,1-1.52.57Zm2.74-3.68c.35-.39.69-.8,1.06-1.16C372.89,18.85,372.55,19.26,372.2,19.65Zm4.2-4.31a9.13,9.13,0,0,1,1.2-1A9.13,9.13,0,0,0,376.4,15.34Zm2.22-1.59h0Z" style="fill:#d11124"/><path d="M315.66,198.24l-.9,12.53h0c-.32,1-.65,2-1,3-5,28.79-18.9,52.6-40.73,71.8a120.45,120.45,0,0,1-54.58,27.45c-1.33.29-2.7.39-4.06.58l-3.69,1.18c-.19,1.84-1.45,2.87-2.66,3.92,1.21-1.05,2.47-2.08,2.66-3.92l-12.53.9q0,6.16.05,12.34l2-.32a47.66,47.66,0,0,0,12.28-1c43-7.39,75.81-29.88,97.86-67.54a123.45,123.45,0,0,0,17.32-58.93c.1-.66.21-1.31.32-2Z" style="fill:#fff"/><path d="M185.79,56.31h-1.32a1.16,1.16,0,0,1,1.33-.61A.48.48,0,0,1,185.79,56.31Z" style="fill:#4283ec"/><path d="M185.79,56.31h-1.32A119.77,119.77,0,0,0,126.1,72.92C82.94,98.07,59.32,135.68,56,185.74h1.8a49.59,49.59,0,0,1,6.45-7.46,49.59,49.59,0,0,0-6.45,7.46l10.52,0q.38-5.5.73-11c.29-1,.57-2,.85-3a118,118,0,0,1,25.79-57.6c19.5-23.92,44.61-38.58,74.94-44.26a7,7,0,0,1,1.12,0l3-.84c.33-.59.69-1.15,1.06-1.7-.37.55-.73,1.11-1.06,1.7l11-.73q0-5.27,0-10.52C185.74,57.3,185.77,56.81,185.79,56.31Z" style="fill:#fff"/><path d="M44.32,348.6l-2.18-.14a2.67,2.67,0,0,1,0,.5,2.67,2.67,0,0,0,0-.5c-3.55-.84-7.17,0-10.74-.46l.12-3c-.06-2.48,0-5-.22-7.45a7.12,7.12,0,0,0-6.84-6.67,7.05,7.05,0,0,0-7,6.84,29,29,0,0,0,0,6c.48,3.58-.73,4.85-4.43,4.52-4.82-.43-9.78-.63-12.92,4.29v5.25c2.26,3,5.05,4.9,9.06,4.46a31.28,31.28,0,0,1,4.43.1l3.74,0a5.82,5.82,0,0,1,.06-1.11,5.82,5.82,0,0,0-.06,1.11c.08,3.49.17,7,.25,10.47l.18,2.05c1.69,3.33,4.23,5.24,8.11,4.4,3.65-.8,5.38-3.6,5.56-8.2.12-2.81-1.26-6.42.65-8.23s5.46-.47,8.29-.57c4.51-.15,7-1.71,8-5.26C49.39,353,47.49,350.47,44.32,348.6Z" style="fill:#f9c402"/><path d="M185.23,315.56a108.89,108.89,0,0,1-34.42-6.75l-1.53.08h0c-2.39-2.18-5.87-2.21-8.35-4.23l-1.43-.15h0c-8.64-4.73-17.28-9.46-24.89-15.81-2-1.67-3.9-3.45-5.85-5.19l-.72-.08a49.19,49.19,0,0,1-3.89,4.39,49.19,49.19,0,0,0,3.89-4.39,47.88,47.88,0,0,0-6.72-6.71h0l-.09-.71c-7.71-7.75-13.71-16.72-18.84-26.31-.82-1.53-1.73-3-2.59-4.52h0l-.18-1.42a37.65,37.65,0,0,1-4-9.65,4.74,4.74,0,0,1-.57-.17h0c-2.08-7.78-4.6-15.45-5.59-23.49-.51-4.06-1.26-8.09-1.18-12.21H55.73c.11,1.18.22,2.36.32,3.53.34,3.08.58,6.17,1,9.22,1.66,11,4.08,21.87,8.86,32,.12.72.25,1.44.37,2.15l4.33,8.28h0l-.06.77A165.86,165.86,0,0,0,92.28,285c.22,0,.45.08.67.14a37,37,0,0,0,6.7,6.65c.06.23.11.45.15.68a156.4,156.4,0,0,0,30.7,21.19l1.53.48a5,5,0,0,1,.29-.92,5,5,0,0,0-.29.92,32.33,32.33,0,0,0,8.89,3.88c.08.21.17.41.25.62,13.59,4.95,27.5,8.45,42,9.43l2.61.22q0-6.29,0-12.57A2.66,2.66,0,0,1,185.23,315.56Zm-111-80.18a22.5,22.5,0,0,1-1.67,2.3A22.5,22.5,0,0,0,74.23,235.38Zm-3.59,4.33a20.53,20.53,0,0,1-1.89,1.58A20.53,20.53,0,0,0,70.64,239.71Zm24.2,43.12c1-1.14,2.08-2.21,3.18-3.24C96.92,280.62,95.84,281.69,94.84,282.83ZM102,289.9c.74-.65,1.46-1.33,2.16-2C103.41,288.57,102.69,289.25,102,289.9Zm44.92,22.66c-.41.47-.83.92-1.27,1.35C146,313.48,146.46,313,146.87,312.56Z" style="fill:#fff"/><path d="M328,183.18a151.4,151.4,0,0,0-9.42-42l-.61-.26a58,58,0,0,1-4.3,4.82,58,58,0,0,0,4.3-4.82,32.69,32.69,0,0,0-3.9-8.87c-.15-.51-.31-1-.46-1.53a158.21,158.21,0,0,0-21.19-30.73l-.68-.15a41.8,41.8,0,0,1-3.92,4.47,41.8,41.8,0,0,0,3.92-4.47A38.28,38.28,0,0,0,285.09,93c0-.22-.1-.45-.13-.67a167,167,0,0,0-30.77-21.72l-.77.07-8.28-4.31-2.14-.4c-1.11-.51-2.2-1.08-3.34-1.52a133.32,133.32,0,0,0-37.92-8.35l-3.54-.32q0,6.28,0,12.56a3.92,3.92,0,0,1,.56.16c10.48.08,20.56,2.41,30.54,5.33,1.54.45,3.08.86,4.62,1.28q.75-.39,1.44-.84-.69.45-1.44.84a5.54,5.54,0,0,1,.17.58,37.65,37.65,0,0,1,9.65,4l1.41.18c1.66-2.75,4.24-4.67,6.43-6.94-2.19,2.27-4.77,4.19-6.43,6.94,10.1,5.45,19.94,11.3,28.46,19.09.82.74,1.59,1.55,2.38,2.33.23,0,.47.06.7.09h0l6.71,6.75.09.7a113.53,113.53,0,0,1,18.78,26.88c.69,1.32,1.48,2.58,2.22,3.87h0c0,.49.11,1,.17,1.47l4.23,9.06c0,.26-.08.52-.11.78a115.43,115.43,0,0,1,6.9,35h12.56Zm-50.46-82.9c1-1.17,2-2.32,3.07-3.4C279.55,98,278.53,99.11,277.55,100.28Z" style="fill:#fff"/></svg>