<?xml version="1.0" encoding="iso-8859-1"?>
<!-- Generator: Adobe Illustrator 19.0.0, SVG Export Plug-In . SVG Version: 6.00 Build 0)  -->
<svg version="1.1" id="Capa_1" xmlns="http://www.w3.org/2000/svg" xmlns:xlink="http://www.w3.org/1999/xlink" x="0px" y="0px"
	 viewBox="0 0 496 496" style="enable-background:new 0 0 496 496;" xml:space="preserve">
<g>
	<g>
		<g>
			<path d="M371.72,24l-11.28,16.912C357.488,45.352,352.536,48,347.2,48c-4.736,0-9.192-2.088-12.224-5.728l-23.232-27.88
				C304.12,5.248,292.92,0,281.008,0h-66.024c-11.904,0-23.112,5.248-30.728,14.392l-23.24,27.88
				C157.992,45.912,153.536,48,148.8,48c-5.336,0-10.288-2.648-13.24-7.088L124.28,24H96v128h304V24H371.72z M384,136H112V40h3.72
				l6.528,9.792C128.176,58.688,138.104,64,148.8,64c9.504,0,18.44-4.184,24.512-11.488l23.24-27.88
				c4.576-5.48,11.288-8.632,18.44-8.632h66.024c7.144,0,13.864,3.152,18.44,8.64l23.232,27.88C328.76,59.816,337.696,64,347.2,64
				c10.696,0,20.624-5.312,26.552-14.208L380.28,40H384V136z"/>
			<path d="M368,200h-16v-32h-16v32h-16v-32h-16v32h-16v-32h-16v32h-16v-32h-16v32h-16v-32h-16v32h-16v-32h-16v32h-16v-32h-16v32
				h-16v-32h-16v193.888l16,32V448h240v-54.112l16-32V168h-16V200z M352,432H144v-32h208V432z M355.056,384H140.944l-8-16h230.112
				L355.056,384z M368,352H128V216h240V352z"/>
			<polygon points="328,480 168,480 168,464 152,464 152,496 344,496 344,464 328,464 			"/>
			<path d="M336,272H160v64h176V272z M320,320H176v-32h96v16h16v-16h32V320z"/>
		</g>
	</g>
</g>
<g>
</g>
<g>
</g>
<g>
</g>
<g>
</g>
<g>
</g>
<g>
</g>
<g>
</g>
<g>
</g>
<g>
</g>
<g>
</g>
<g>
</g>
<g>
</g>
<g>
</g>
<g>
</g>
<g>
</g>
</svg>
