<svg height="512" viewBox="0 0 64 64" width="512" xmlns="http://www.w3.org/2000/svg"><path d="m47 46a3 3 0 1 0 -3-3 3 3 0 0 0 3 3zm0-4a1 1 0 1 1 -1 1 1 1 0 0 1 1-1z"/><path d="m55 46a3 3 0 1 0 -3-3 3 3 0 0 0 3 3zm0-4a1 1 0 1 1 -1 1 1 1 0 0 1 1-1z"/><path d="m33 46h8a1 1 0 0 0 1-1v-4a1 1 0 0 0 -1-1h-8a1 1 0 0 0 -1 1v4a1 1 0 0 0 1 1zm1-4h6v2h-6z"/><path d="m61 26a1 1 0 0 0 1-1v-6a1 1 0 0 0 -1-1h-27v-3a1 1 0 0 0 -1-1h-1v-4h3a1 1 0 0 0 1-1v-6a1 1 0 0 0 -1-1h-32a1 1 0 0 0 -1 1v6a1 1 0 0 0 1 1h3v4h-1a1 1 0 0 0 -1 1v7.184a3 3 0 0 0 -2 2.816v20a2.985 2.985 0 0 0 1 2.22v1.78a2.993 2.993 0 0 0 2.079 2.84l.746 7.46a2.987 2.987 0 0 0 2.985 2.7h20.38a2.979 2.979 0 0 0 2.81-1.976 2.98 2.98 0 0 0 2.81 1.976h20.38a2.982 2.982 0 0 0 2.981-2.669l.725-5.483a2.994 2.994 0 0 0 2.104-2.848v-1.78a2.985 2.985 0 0 0 1-2.22v-16a3 3 0 0 0 -3-3h-1v-2zm-1-2h-30v-4h30zm0 23a1 1 0 0 1 -1 1h-28a1 1 0 0 1 -1-1v-9h30zm-55-1a1 1 0 0 1 -1-1v-13h24v14zm5-22v6h-2v-6zm22 12h-2v-5a1 1 0 0 1 1-1h1zm-8-6v-6h2v6zm-2 0h-2v-6h2zm-4 0h-2v-6h2zm-4 0h-2v-6h2zm42 6h-2v-6h2zm-4 0h-2v-6h2zm-4 0h-2v-6h2zm-4 0h-2v-6h2zm-4 0h-2v-6h2zm-4 0h-2v-6h2zm-5-8a3 3 0 0 0 -2.816 2h-.184v-5a1 1 0 0 0 1 1h3v2zm-27-24h30v4h-30zm4 6h22v4h-22zm-2 6h26v2h-3a1 1 0 0 0 -1 1v3h-22zm-1 8h1v6h-2v-5a1 1 0 0 1 1-1zm0 24h23.184a3 3 0 0 0 .816 1.22v.78h-23a1 1 0 0 1 -1-1zm24.19 12h-20.38a.994.994 0 0 1 -1-.9l-.705-7.1h22.079a3 3 0 0 0 1.54 1.7l-.539 5.4a.994.994 0 0 1 -.995.9zm27-.9a1 1 0 0 1 -1 .9h-20.38a1 1 0 0 1 -1-.932l-.669-5.068h23.718zm2.81-8.1a1 1 0 0 1 -1 1h-26a1 1 0 0 1 -1-1v-1h28zm1-20v5h-2v-6h1a1 1 0 0 1 1 1zm-4-3h-22v-2h22z"/><path d="m35 56h8v2h-8z"/><path d="m21 38a3 3 0 1 0 3 3 3 3 0 0 0 -3-3zm0 4a1 1 0 1 1 1-1 1 1 0 0 1 -1 1z"/><path d="m15 38h-8a1 1 0 0 0 -1 1v4a1 1 0 0 0 1 1h8a1 1 0 0 0 1-1v-4a1 1 0 0 0 -1-1zm-1 4h-6v-2h6z"/><path d="m6 34h4v2h-4z"/><path d="m12 34h14v2h-14z"/><path d="m6 5h2v2h-2z"/><path d="m10 5h2v2h-2z"/><path d="m14 5h2v2h-2z"/><path d="m18 5h2v2h-2z"/><path d="m22 5h2v2h-2z"/><path d="m26 5h2v2h-2z"/><path d="m30 5h2v2h-2z"/><path d="m9 54h8v2h-8z"/><path d="m21 56h8v2h-8z"/></svg>