<?xml version="1.0" encoding="utf-8"?>
<!-- Generator: Adobe Illustrator 24.0.1, SVG Export Plug-In . SVG Version: 6.00 Build 0)  -->
<svg version="1.1" id="Layer_1" xmlns="http://www.w3.org/2000/svg" xmlns:xlink="http://www.w3.org/1999/xlink" x="0px" y="0px"
	 viewBox="0 0 480 480" style="enable-background:new 0 0 480 480;" xml:space="preserve">
<style type="text/css">
	.st0{fill:#FFFFFF;}
</style>
<path class="st0" d="M102.4,12.5L91.2,1L69.5,22.9H32.9C15.3,22.9,1,37.4,1,55.3s14.3,32.4,31.9,32.4v235.7
	C14.4,327.3,1,343.9,1,363.2v113.4h16V363.2c0-13.4,10.7-24.3,24-24.3s24,10.9,24,24.3v113.4h16V363.2c0-19.2-13.4-35.8-31.9-39.7
	V87.7h20.6l21.6,21.9l11.3-11.5L80.8,76.3V34.4L102.4,12.5z M17,55.3c0-8.9,7.2-16.2,16-16.2h31.9v32.4H32.9
	C24.1,71.5,17,64.3,17,55.3z"/>
<path class="st0" d="M144.7,47.2h23.9v16.2h-23.9V47.2z"/>
<path class="st0" d="M124.3,21l17-17l11.3,11.3l-17,17L124.3,21z"/>
<path class="st0" d="M125,95.4L136.3,84l16.9,17.2L142,112.6L125,95.4z"/>
<path class="st0" d="M296.4,209.2h16v16.2h-16V209.2z"/>
<path class="st0" d="M328.3,209.2h16v16.2h-16V209.2z"/>
<path class="st0" d="M474.3,173.1c-3.5-2.2-7.9-2.4-11.6-0.5l-24.5,12.4h-24.3c-2.8-5-8.1-8.1-13.7-8.1h-12.4
	c2.9-4.9,4.4-10.5,4.4-16.2c0.1-13.5-8.2-25.6-20.7-30.4c-12.5-4.7-26.5-1.1-35.2,9.1c-10.7-12.7-29.2-15-42.6-5.2
	c-13.4,9.7-17.2,28.3-8.8,42.6h-12.4c-8.8,0-16,7.3-16,16.2v48.6c0,8.9,7.2,16.2,16,16.2h24v8.1c0,13.4,10.7,24.3,24,24.3h8v170.1
	h-71.9v16.2h159.7v-16.2h-71.9V290.3h8c13.2,0,23.9-10.9,24-24.3v-8.1h23.9c5.7,0,10.9-3.1,13.7-8.1h24.3l24.5,12.4
	c3.7,1.9,8.1,1.7,11.6-0.5c3.5-2.2,5.7-6.1,5.7-10.3v-67.9C480,179.2,477.9,175.3,474.3,173.1z M360.3,144.4c8.8,0,16,7.3,16,16.2
	s-7.1,16.2-16,16.2s-16-7.3-16-16.2C344.3,151.7,351.4,144.5,360.3,144.4z M296.4,160.6c0-8.9,7.1-16.2,16-16.2s16,7.3,16,16.2
	s-7.1,16.2-16,16.2C303.5,176.8,296.4,169.6,296.4,160.6z M360.3,266c0,4.5-3.6,8.1-8,8.1h-31.9c-4.4,0-8-3.6-8-8.1v-8.1h47.9V266z
	 M272.4,241.6V193h127.7v48.6H272.4z M416.1,201.1h16v32.4h-16V201.1z M464,244.7l-16-8.1v-38.6l16-8.1V244.7z"/>
<path class="st0" d="M216.6,282.2h-87.8c-13.2,0-23.9,10.9-24,24.3v153.9c0,8.9,7.2,16.2,16,16.2h103.8c8.8,0,16-7.3,16-16.2V306.5
	C240.5,293,229.8,282.2,216.6,282.2z M120.8,338.9h23.9v81h-23.9V338.9z M184.6,419.9h-23.9v-81h23.9V419.9z M224.5,460.4H120.8
	v-24.3h103.8V460.4z M224.5,419.9h-24v-81h24V419.9z M120.8,322.7v-16.2c0-4.5,3.6-8.1,8-8.1h87.8c4.4,0,8,3.6,8,8.1v16.2H120.8z"/>
</svg>
