<?xml version="1.0" encoding="utf-8"?>
<!-- Generator: Adobe Illustrator 24.0.1, SVG Export Plug-In . SVG Version: 6.00 Build 0)  -->
<svg version="1.1" id="Layer_1" xmlns="http://www.w3.org/2000/svg" xmlns:xlink="http://www.w3.org/1999/xlink" x="0px" y="0px"
	 viewBox="0 0 512 512" style="enable-background:new 0 0 512 512;" xml:space="preserve">
<style type="text/css">
	.st0{fill:none;}
	.st1{fill:#D11124;}
	.st2{fill:#F9C402;}
</style>
<title>027 - Photography</title>
<desc>Created with Sketch.</desc>
<path class="st0" d="M110.78,136.53c4.69-0.26,9.13,2.14,11.48,6.21l12.57,19.9l32.58-61.86c2.13-4.12,6.33-6.76,10.96-6.91
	s8.99,2.23,11.38,6.2l54.88,87.65H256V51.2H100.03c5.17,13.92,1.75,29.58-8.74,40.09c-10.5,10.51-26.15,13.94-40.08,8.78v113.26
	h11.95l36.76-69.89C102.01,139.34,106.17,136.7,110.78,136.53z"/>
<path class="st0" d="M85.33,64c0.01-4.64-1.54-9.14-4.39-12.8H51.2v29.75c3.66,2.85,8.16,4.39,12.8,4.39
	C75.78,85.33,85.33,75.78,85.33,64z"/>
<polygon class="st0" points="82.4,213.33 146.65,213.33 111.61,157.87 "/>
<path class="st0" d="M224.49,187.75l-45.4-72.53l-33.75,64.09l21.5,34.03h6.77c8.31-15.73,24.63-25.58,42.42-25.58H224.49z"/>
<path class="st0" d="M267.9,204.8h-51.87c-13.39-0.01-25.28,8.56-29.5,21.27L178.69,256h126.54l-7.99-30.46
	c-1.01-2.99-2.49-5.8-4.39-8.32c-0.21-0.2-0.38-0.44-0.57-0.67C286.36,209.13,277.39,204.81,267.9,204.8z M256.85,244.44H227.1
	c-4.71,0-8.53-3.82-8.53-8.53s3.82-8.53,8.53-8.53h29.76c4.71,0,8.53,3.82,8.53,8.53S261.57,244.44,256.85,244.44z"/>
<path class="st0" d="M161.05,256l6.71-25.6H46.93c-7.07,0-12.8-5.73-12.8-12.8V46.93c0-7.07,5.73-12.8,12.8-12.8h213.33
	c7.07,0,12.8,5.73,12.8,12.8v141.21c5.95,0.61,11.74,2.32,17.07,5.05V25.6c0-4.71-3.82-8.53-8.53-8.53h-256
	c-4.71,0-8.53,3.82-8.53,8.53v290.13c0,4.71,3.82,8.53,8.53,8.53h93.87v-34.13c0-18.85,15.28-34.13,34.13-34.13H161.05z M51.2,281.6
	c-4.71,0-8.53-3.82-8.53-8.53c0-4.71,3.82-8.53,8.53-8.53s8.53,3.82,8.53,8.53C59.73,277.78,55.91,281.6,51.2,281.6z M85.33,281.6
	c-4.71,0-8.53-3.82-8.53-8.53c0-4.71,3.82-8.53,8.53-8.53s8.53,3.82,8.53,8.53C93.87,277.78,90.05,281.6,85.33,281.6z"/>
<path class="st0" d="M457.33,190.2c-7.02-31.14-24.09-59.11-48.58-79.59l-0.48,2.37L388.75,217.5c6.67,0.06,13.06,2.74,17.77,7.47
	L457.33,190.2z"/>
<path class="st0" d="M370.94,176.95l6.26,9.15l13.12-69.97l3.07-16.68c-23.18-14.83-50.13-22.7-77.65-22.66
	c-2.85,0-5.7,0.1-8.53,0.28v6.83l52.45,76.57L370.94,176.95z"/>
<polygon class="st0" points="307.2,114.11 307.2,148.13 333.91,153.12 "/>
<path class="st0" d="M363.08,234.53c-4.71,0-8.53,3.82-8.53,8.53V256h42.39v-12.94c0-4.71-3.82-8.53-8.53-8.53H363.08z"/>
<path class="st0" d="M322.87,256h14.62v-12.89c0-14.14,11.46-25.6,25.6-25.6h8.26l1.41-7.59l-0.93-1.36l-24.29-35.49l-6.11-1.13
	l-34.23-6.39v42.67c2.73,3.82,4.88,8.02,6.39,12.46L322.87,256z"/>
<path class="st0" d="M460.82,221.87c0-4.37-0.19-8.72-0.57-12.99l-46.46,31.79c0.08,0.8,0.25,1.54,0.25,2.4v13.38
	c16.9,2.18,29.59,16.51,29.7,33.54C454.98,269.05,460.85,245.64,460.82,221.87z"/>
<path class="st0" d="M247.47,324.27c-32.99,0-59.73,26.74-59.73,59.73s26.74,59.73,59.73,59.73c32.97-0.04,59.7-26.76,59.73-59.73
	C307.2,351.01,280.46,324.27,247.47,324.27z M246.1,398.79c-11.16,4.62-24.01,2.07-32.55-6.47c-8.54-8.54-11.1-21.39-6.47-32.55
	c4.62-11.16,15.51-18.44,27.59-18.44c16.49,0,29.87,13.37,29.87,29.87C264.53,383.28,257.26,394.17,246.1,398.79z M281.6,401.07
	c-4.71,0-8.53-3.82-8.53-8.53c0-4.71,3.82-8.53,8.53-8.53s8.53,3.82,8.53,8.53C290.13,397.25,286.31,401.07,281.6,401.07z"/>
<path class="st0" d="M409.6,273.07h-256c-9.43,0-17.07,7.64-17.07,17.07v187.73c0,9.43,7.64,17.07,17.07,17.07h256
	c9.43,0,17.07-7.64,17.07-17.07V290.13C426.67,280.71,419.03,273.07,409.6,273.07z M247.47,460.8c-42.42,0-76.8-34.38-76.8-76.8
	s34.38-76.8,76.8-76.8c42.4,0.05,76.75,34.4,76.8,76.8C324.27,426.42,289.88,460.8,247.47,460.8z M384,358.4h-34.13
	c-4.71,0-8.53-3.82-8.53-8.53s3.82-8.53,8.53-8.53H384c4.71,0,8.53,3.82,8.53,8.53S388.71,358.4,384,358.4z M384,324.27h-34.13
	c-4.71,0-8.53-3.82-8.53-8.53s3.82-8.53,8.53-8.53H384c4.71,0,8.53,3.82,8.53,8.53S388.71,324.27,384,324.27z"/>
<path class="st0" d="M315.73,42.67c-2.91,0-5.7,0.25-8.53,0.38v16.94c2.84-0.16,5.69-0.26,8.53-0.26
	c32.9-0.04,65.02,10.01,92.02,28.8c35.33,24.37,59.57,61.74,67.41,103.94v0.05c1.81,9.67,2.71,19.5,2.7,29.34
	c0.04,32.86-9.99,64.94-28.74,91.92l-0.04,0.07v0.05c-1.66,2.44-3.51,4.79-5.35,7.13v26.27c50.51-51.53,65.19-128.33,37.23-194.86
	C453.02,85.93,387.89,42.66,315.73,42.67z"/>
<circle class="st0" cx="234.67" cy="371.2" r="12.8"/>
<circle cx="51.2" cy="273.07" r="8.53"/>
<ellipse transform="matrix(0.9732 -0.2298 0.2298 0.9732 -60.4553 26.9105)" cx="85.33" cy="273.07" rx="8.53" ry="8.53"/>
<path class="st1" d="M179.09,115.22l45.4,72.53l20.14-0.02l-54.88-87.65c-2.39-3.98-6.74-6.35-11.38-6.2s-8.83,2.79-10.96,6.91
	l-32.58,61.86l-12.57-19.9c-2.35-4.07-6.79-6.47-11.48-6.21c-4.61,0.16-8.77,2.81-10.87,6.91l-36.76,69.89H82.4l29.21-55.47
	l35.04,55.47h20.19l-21.5-34.03L179.09,115.22z"/>
<path d="M499.72,153.6c-28.54-76.93-101.93-127.99-183.99-128c-2.91,0-5.7,0.26-8.53,0.38V25.6c0-14.14-11.46-25.6-25.6-25.6h-256
	C11.46,0,0,11.46,0,25.6v290.13c0,14.14,11.46,25.6,25.6,25.6h93.87v136.53c0,18.85,15.28,34.13,34.13,34.13h256
	c18.85,0,34.13-15.28,34.13-34.13V370.63C505.93,317.1,528.26,230.53,499.72,153.6z M307.2,77.06c2.83-0.18,5.68-0.28,8.53-0.28
	c27.52-0.04,54.47,7.83,77.65,22.66l-3.07,16.68l-13.12,69.97l-6.26-9.15l-11.28-16.49L307.2,83.88V77.06z M388.75,217.5
	l19.52-104.52l0.48-2.37c24.49,20.48,41.56,48.45,48.58,79.59l-50.8,34.76C401.81,220.24,395.43,217.56,388.75,217.5z
	 M396.95,243.06V256h-42.39v-12.94c0-4.71,3.82-8.53,8.53-8.53h25.33C393.12,234.53,396.95,238.35,396.95,243.06z M307.2,114.11
	l26.71,39.01l-26.71-4.99V114.11z M307.2,165.55l34.23,6.39l6.11,1.13l24.29,35.49l0.93,1.36l-1.41,7.59h-8.26
	c-14.14,0-25.6,11.46-25.6,25.6V256h-14.62l-9.28-35.33c-1.51-4.44-3.67-8.64-6.39-12.46V165.55z M292.86,217.22
	c1.9,2.52,3.38,5.33,4.39,8.32l7.99,30.46H178.69l7.83-29.93c4.22-12.71,16.11-21.29,29.5-21.27h51.87
	c9.49,0.01,18.47,4.33,24.39,11.75C292.48,216.77,292.64,217.01,292.86,217.22z M173.6,213.33h-6.77h-20.19H82.4H63.15H51.2V100.07
	V80.95V51.2h29.75h19.08H256v136.53h-11.37l-20.14,0.02h-8.47C198.23,187.76,181.91,197.6,173.6,213.33z M119.47,290.13v34.13H25.6
	c-4.71,0-8.53-3.82-8.53-8.53V25.6c0-4.71,3.82-8.53,8.53-8.53h256c4.71,0,8.53,3.82,8.53,8.53v167.59
	c-5.33-2.73-11.11-4.44-17.07-5.05V46.93c0-7.07-5.73-12.8-12.8-12.8H46.93c-7.07,0-12.8,5.73-12.8,12.8V217.6
	c0,7.07,5.73,12.8,12.8,12.8h120.82l-6.71,25.6h-7.45C134.75,256,119.47,271.28,119.47,290.13z M426.67,477.87
	c0,9.43-7.64,17.07-17.07,17.07h-256c-9.43,0-17.07-7.64-17.07-17.07V290.13c0-9.43,7.64-17.07,17.07-17.07h256
	c9.43,0,17.07,7.64,17.07,17.07V477.87z M414.03,256.44v-13.38c0-0.85-0.17-1.6-0.25-2.4l46.46-31.79
	c0.38,4.27,0.57,8.62,0.57,12.99c0.03,23.77-5.84,47.18-17.08,68.12C443.62,272.95,430.93,258.62,414.03,256.44z M443.73,347.31
	v-26.27c1.84-2.35,3.69-4.69,5.35-7.13v-0.05l0.04-0.07c18.75-26.98,28.78-59.06,28.74-91.92c0.01-9.84-0.89-19.66-2.7-29.34v-0.05
	c-7.84-42.2-32.08-79.57-67.41-103.94c-27.01-18.79-59.12-28.84-92.02-28.8c-2.84,0-5.69,0.09-8.53,0.26V43.05
	c2.83-0.14,5.62-0.38,8.53-0.38c72.16-0.01,137.28,43.26,165.23,109.78C508.92,218.98,494.24,295.78,443.73,347.31z"/>
<path class="st2" d="M91.28,91.29c10.5-10.51,13.91-26.17,8.74-40.09H80.95c2.85,3.66,4.39,8.16,4.39,12.8
	c0,11.78-9.55,21.33-21.33,21.33c-4.64,0.01-9.14-1.54-12.8-4.39v19.12C65.13,105.23,80.79,101.8,91.28,91.29z"/>
<path d="M384,307.2h-34.13c-4.71,0-8.53,3.82-8.53,8.53s3.82,8.53,8.53,8.53H384c4.71,0,8.53-3.82,8.53-8.53S388.71,307.2,384,307.2
	z"/>
<path d="M384,341.33h-34.13c-4.71,0-8.53,3.82-8.53,8.53s3.82,8.53,8.53,8.53H384c4.71,0,8.53-3.82,8.53-8.53
	S388.71,341.33,384,341.33z"/>
<path d="M256.85,227.37H227.1c-4.71,0-8.53,3.82-8.53,8.53s3.82,8.53,8.53,8.53h29.76c4.71,0,8.53-3.82,8.53-8.53
	S261.57,227.37,256.85,227.37z"/>
<path d="M247.47,307.2c-42.42,0-76.8,34.38-76.8,76.8s34.38,76.8,76.8,76.8s76.8-34.38,76.8-76.8
	C324.22,341.6,289.86,307.25,247.47,307.2z M247.47,443.73c-32.99,0-59.73-26.74-59.73-59.73s26.74-59.73,59.73-59.73
	S307.2,351.01,307.2,384C307.16,416.97,280.44,443.7,247.47,443.73z"/>
<path d="M234.67,341.33c-12.08,0-22.97,7.28-27.59,18.44c-4.62,11.16-2.07,24.01,6.47,32.55c8.54,8.54,21.39,11.1,32.55,6.47
	c11.16-4.62,18.44-15.51,18.44-27.59C264.53,354.71,251.16,341.33,234.67,341.33z M234.67,384c-7.07,0-12.8-5.73-12.8-12.8
	c0-7.07,5.73-12.8,12.8-12.8c7.07,0,12.8,5.73,12.8,12.8C247.47,378.27,241.74,384,234.67,384z"/>
<circle cx="281.6" cy="392.53" r="8.53"/>
</svg>
