<?xml version="1.0" encoding="iso-8859-1"?>
<!-- Generator: Adobe Illustrator 19.0.0, SVG Export Plug-In . SVG Version: 6.00 Build 0)  -->
<svg version="1.1" id="Capa_1" xmlns="http://www.w3.org/2000/svg" xmlns:xlink="http://www.w3.org/1999/xlink" x="0px" y="0px"
	 viewBox="0 0 512 512" style="enable-background:new 0 0 512 512;" xml:space="preserve">
<g>
	<g>
		<g>
			<path d="M384,0H128c-14.138,0-25.6,11.461-25.6,25.6v460.8c0,14.138,11.461,25.6,25.6,25.6h256c14.138,0,25.6-11.461,25.6-25.6
				V25.6C409.6,11.461,398.138,0,384,0z M392.533,68.267H196.267c-4.713,0-8.533,3.82-8.533,8.533s3.82,8.533,8.533,8.533h196.267
				v332.8h-25.6c-4.713,0-8.533,3.82-8.533,8.533s3.82,8.533,8.533,8.533h25.6v51.2c0,4.713-3.82,8.533-8.533,8.533H128
				c-4.713,0-8.533-3.82-8.533-8.533v-51.2h196.267c4.713,0,8.533-3.82,8.533-8.533s-3.82-8.533-8.533-8.533H119.467v-332.8h25.6
				c4.713,0,8.533-3.82,8.533-8.533s-3.82-8.533-8.533-8.533h-25.6V25.6c0-4.713,3.82-8.533,8.533-8.533h256
				c4.713,0,8.533,3.82,8.533,8.533V68.267z"/>
			<path d="M264.533,460.8h-17.067c-4.713,0-8.533,3.82-8.533,8.533s3.82,8.533,8.533,8.533h17.067c4.713,0,8.533-3.82,8.533-8.533
				S269.246,460.8,264.533,460.8z"/>
		</g>
	</g>
</g>
<g>
</g>
<g>
</g>
<g>
</g>
<g>
</g>
<g>
</g>
<g>
</g>
<g>
</g>
<g>
</g>
<g>
</g>
<g>
</g>
<g>
</g>
<g>
</g>
<g>
</g>
<g>
</g>
<g>
</g>
</svg>
