<?xml version="1.0" encoding="utf-8"?>
<!-- Generator: Adobe Illustrator 24.0.1, SVG Export Plug-In . SVG Version: 6.00 Build 0)  -->
<svg version="1.1" id="Layer_1" xmlns="http://www.w3.org/2000/svg" xmlns:xlink="http://www.w3.org/1999/xlink" x="0px" y="0px"
	 viewBox="0 0 512 512" style="enable-background:new 0 0 512 512;" xml:space="preserve">
<style type="text/css">
	.st0{fill:#FFFFFF;}
</style>
<g>
	<g>
		<path class="st0" d="M358.3,6.4H153.7c-20.7,0-37.4,18.8-37.4,41.8v415.5c0,23.1,16.8,41.8,37.4,41.8h204.6
			c20.6,0,37.4-18.8,37.4-41.8V48.2C395.7,25.2,378.9,6.4,358.3,6.4z M377.9,463.8c0,12.1-8.8,22-19.7,22H153.7
			c-10.8,0-19.7-9.8-19.7-22v-53.6h243.9V463.8z M377.9,390.2H134.1V76h243.9V390.2z M377.9,56.1H134.1v-7.9c0-12.1,8.8-22,19.7-22
			h204.6c10.8,0,19.6,9.8,19.6,22L377.9,56.1L377.9,56.1z"/>
	</g>
</g>
<g>
	<g>
		<path class="st0" d="M257.8,418.1h-3.6c-14.7,0-26.7,13.4-26.7,29.8c0,16.5,12,29.8,26.7,29.8h3.6c14.7,0,26.7-13.4,26.7-29.8
			C284.5,431.5,272.5,418.1,257.8,418.1z M257.8,457.9h-3.6c-4.9,0-8.9-4.5-8.9-9.9c0-5.5,4-9.9,8.9-9.9h3.6c4.9,0,8.9,4.5,8.9,9.9
			C266.7,453.4,262.7,457.9,257.8,457.9z"/>
	</g>
</g>
<g>
	<g>
		<path class="st0" d="M231.8,138.7h-43.4c-4.9,0-8.9,4.5-8.9,9.9v48.5c0,5.5,4,9.9,8.9,9.9c4.9,0,8.9-4.5,8.9-9.9v-38.6h34.5
			c4.9,0,8.9-4.5,8.9-9.9C240.7,143.1,236.7,138.7,231.8,138.7z"/>
	</g>
</g>
<g>
	<g>
		<path class="st0" d="M231.8,289.8h-34.5v-38.6c0-5.5-4-9.9-8.9-9.9s-8.9,4.5-8.9,9.9v48.5c0,5.5,4,9.9,8.9,9.9h43.4
			c4.9,0,8.9-4.5,8.9-9.9C240.7,294.3,236.7,289.8,231.8,289.8z"/>
	</g>
</g>
<g>
	<g>
		<path class="st0" d="M323.6,138.7h-43.4c-4.9,0-8.9,4.5-8.9,9.9s4,9.9,8.9,9.9h34.5v38.6c0,5.5,4,9.9,8.9,9.9s8.9-4.5,8.9-9.9
			v-48.5C332.5,143.1,328.6,138.7,323.6,138.7z"/>
	</g>
</g>
<g>
	<g>
		<path class="st0" d="M323.6,241.3c-4.9,0-8.9,4.5-8.9,9.9v38.6h-34.5c-4.9,0-8.9,4.5-8.9,9.9s4,9.9,8.9,9.9h43.4
			c4.9,0,8.9-4.5,8.9-9.9v-48.5C332.5,245.8,328.6,241.3,323.6,241.3z"/>
	</g>
</g>
<g>
	<g>
		<path class="st0" d="M288.9,362.4h-6.2c-4.9,0-8.9,4.5-8.9,9.9c0,5.5,4,9.9,8.9,9.9h6.2c4.9,0,8.9-4.5,8.9-9.9
			C297.8,366.9,293.8,362.4,288.9,362.4z"/>
	</g>
</g>
<g>
	<g>
		<path class="st0" d="M360.1,362.4h-37.4c-4.9,0-8.9,4.5-8.9,9.9c0,5.5,4,9.9,8.9,9.9h37.4c4.9,0,8.9-4.5,8.9-9.9
			C369,366.9,365,362.4,360.1,362.4z"/>
	</g>
</g>
</svg>
