<svg id="Layer_1" data-name="Layer 1" xmlns="http://www.w3.org/2000/svg" viewBox="0 0 312 348"><title>photographer2</title><path d="M230.06,309.33H10.65a1.44,1.44,0,1,1,0-2.88H230.06a1.44,1.44,0,1,1,0,2.88Z" style="fill:#fff"/><path d="M216.06,313c-12,.06-24,.78-35.95.84a1.44,1.44,0,1,1,0-2.87c12-.07,24-.79,35.95-.85a1.44,1.44,0,1,1,0,2.88Z" style="fill:#fff"/><path d="M151.89,315.1h-5a1.44,1.44,0,1,1,0-2.87h5a1.44,1.44,0,1,1,0,2.87Z" style="fill:#fff"/><path d="M136.42,316a14.7,14.7,0,0,0-4.14.37,1.45,1.45,0,1,1-.83-2.77,18,18,0,0,1,5-.48,1.44,1.44,0,1,1,0,2.88Z" style="fill:#fff"/><path d="M176.92,313c-18.51,0-37,.4-55.52.42a1.44,1.44,0,1,1,0-2.88c18.51,0,37-.39,55.52-.42a1.44,1.44,0,1,1,0,2.88Z" style="fill:#fff"/><path d="M88.63,313.83H86.35a1.44,1.44,0,1,1,0-2.87h2.28a1.44,1.44,0,1,1,0,2.87Z" style="fill:#fff"/><path d="M79.11,313.36A37,37,0,0,0,72.7,313a1.44,1.44,0,1,1,0-2.88,41.76,41.76,0,0,1,7.24.48c2,.33,1.13,3.1-.83,2.77Z" style="fill:#fff"/><path d="M111.39,311.3a40.5,40.5,0,0,0-6.87.79c-2,.36-2.79-2.41-.83-2.77a45.32,45.32,0,0,1,7.7-.9,1.44,1.44,0,1,1,0,2.88Z" style="fill:#fff"/><path d="M56.32,313.83c-3.94.38-7.88.43-11.84.43a1.44,1.44,0,1,1,0-2.88c4,0,7.9,0,11.84-.42,2-.19,2,2.68,0,2.87Z" style="fill:#fff"/><path d="M189.21,319.33c-14.59.05-29.17.69-43.65-1.32-2-.27-1.13-3,.83-2.77,14.19,2,28.53,1.27,42.82,1.21a1.44,1.44,0,1,1,0,2.88Z" style="fill:#fff"/><path d="M132.32,318.06a148.07,148.07,0,0,1-19.53-.9c-2-.26-1.12-3,.83-2.77a142.32,142.32,0,0,0,18.7.79,1.44,1.44,0,1,1,0,2.88Z" style="fill:#fff"/><path d="M101.83,317.22c-10.47-.37-20.94,0-31.4,0a1.44,1.44,0,1,1,0-2.88c10.46,0,20.93-.36,31.4,0a1.44,1.44,0,1,1,0,2.88Z" style="fill:#fff"/><path d="M118.21,322.71a102.29,102.29,0,0,0-10.92-.84,1.44,1.44,0,1,1,0-2.88,102.29,102.29,0,0,1,10.92.84c2,.23,2,3.11,0,2.88Z" style="fill:#fff"/><path d="M159.17,324.82h-5.91a1.44,1.44,0,1,1,0-2.87h5.91a1.44,1.44,0,1,1,0,2.87Z" style="fill:#fff"/><path d="M132.82,323.5a26,26,0,0,0-7.37,0c-2,.28-2.79-2.49-.82-2.77a31.63,31.63,0,0,1,9,0c2,.28,1.13,3-.82,2.77Z" style="fill:#fff"/><path d="M86.35,326.94h-.91a1.44,1.44,0,1,1,0-2.88h.91a1.44,1.44,0,1,1,0,2.88Z" style="fill:#fff"/><path d="M130.5,331.59h-2.28a1.44,1.44,0,1,1,0-2.88h2.28a1.44,1.44,0,1,1,0,2.88Z" style="fill:#fff"/><path d="M242.8,63.06c10.72-7.38,22.75-7.4,29.82,4,5.75,9.3,6.15,25.89-2.46,34-11.09,10.43-28.15,3.39-32.63-9.31-4.63-13.1-.15-34.63,17.88-34.06a1.44,1.44,0,1,1,0,2.88c-17.29-.55-18.84,22.5-13.61,33.6,2.8,5.94,10.19,9.14,16.78,9.2,7.44.06,11.71-6.46,13.68-12.21,2.64-7.75,1.25-16.87-3.06-23.84-5.94-9.59-16.7-7.38-24.84-1.78-1.61,1.11-3.15-1.39-1.56-2.48Z" style="fill:#fff"/><path d="M252.35,62.77c17.86-10.72,27.81,31.56,9.87,38.17-9.86,3.64-17.13-3.73-19.88-11.82a22,22,0,0,1,10-26.35c1.73-.94,3.28,1.55,1.57,2.49-12,6.56-14.43,32.28,3.23,33.81,9,.78,11.17-11.08,11.29-17,.11-5.7-3.79-23.25-14.52-16.8a1.47,1.47,0,0,1-1.57-2.49Z" style="fill:#fff"/><path d="M257.69,60.35c-4.33,0-8.65.38-13,.22a1.44,1.44,0,1,1,0-2.88c4.33.16,8.65-.18,13-.21a1.44,1.44,0,1,1,0,2.87Z" style="fill:#fff"/><path d="M244.22,60.72c-15,5.2-19,30.06-5.64,38.55a1.42,1.42,0,0,1-.37,2.63,1.05,1.05,0,0,1-.8.15l-1.34-2.17,1.73-.06a1.44,1.44,0,1,1,0,2.88l-1.73.06a1.46,1.46,0,0,1-1.34-2.17,4.37,4.37,0,0,1,2.65-1.47l-.36,2.63c-15.73-10-11.29-37.68,6.37-43.8,1.88-.65,2.68,2.13.83,2.77Z" style="fill:#fff"/><path d="M241.57,107.21H202.12a1.44,1.44,0,1,1,0-2.88h39.45a1.44,1.44,0,1,1,0,2.88Z" style="fill:#fff"/><path d="M198.94,105.48V59c0-1.86,3.1-1.86,3.1,0v46.49c0,1.86-3.1,1.86-3.1,0Z" style="fill:#fff"/><path d="M200.49,57h52a1.44,1.44,0,1,1,0,2.88h-52a1.44,1.44,0,1,1,0-2.88Z" style="fill:#fff"/><path d="M233,66.06H203.53a1.44,1.44,0,1,1,0-2.88H233a1.44,1.44,0,1,1,0,2.88Z" style="fill:#fff"/><path d="M235.69,103.54H233a1.44,1.44,0,1,1,0-2.87h2.73a1.44,1.44,0,1,1,0,2.87Z" style="fill:#fff"/><path d="M228.71,103.54H202.92a1.44,1.44,0,1,1,0-2.87h25.79a1.44,1.44,0,1,1,0,2.87Z" style="fill:#fff"/><path d="M224.44,107.56c-9.77,24.86-30.42,40.26-55.93,51-1.81.76-3.38-1.72-1.57-2.48,24.68-10.41,45-25.2,54.51-49.31.68-1.72,3.67-1,3,.77Z" style="fill:#fff"/><path d="M151.46,149c12.73-14.65,18.65-31.66,21.45-50.09.27-1.83,3.26-1.05,3,.77-2.88,19-9.13,36.26-22.24,51.36-1.26,1.44-3.43-.61-2.19-2Z" style="fill:#fff"/><path d="M174.44,80.8c-10.51-3.37-10.71,17.71.91,14.56a1.45,1.45,0,1,1,.83,2.78c-16.75,4.53-16.3-25-.91-20.11a1.45,1.45,0,1,1-.83,2.77Z" style="fill:#fff"/><path d="M202,122.42a11,11,0,0,1-12.17-11.3c0-1.85,3.14-1.85,3.1,0a8,8,0,0,0,9.07,8.43c2-.22,2,2.66,0,2.87Z" style="fill:#fff"/><path d="M192.73,127.86a8.62,8.62,0,0,1-1.83-1.63c-1.37-1.35.82-3.38,2.19-2a7.11,7.11,0,0,0,1.21,1.18c1.71,1,.15,3.43-1.57,2.48Z" style="fill:#fff"/><path d="M237.31,124.92c3.06-5.36,6.4-10.65,7.51-16.72.33-1.82,3.31-1,3,.77-1.15,6.3-4.64,11.83-7.82,17.4-.93,1.64-3.61.19-2.67-1.45Z" style="fill:#fff"/><path d="M244.91,110.16c-2.49-2.14-5.34-3.77-7.44-6.3-3.19-3.83-3-9.34-2.5-13.87.19-1.83,3.29-1.85,3.09,0-.45,4.27-.64,8.74,2.08,12.42,1.74,2.34,4.75,3.81,7,5.72,1.47,1.27-.73,3.3-2.19,2Z" style="fill:#fff"/><path d="M277.27,87.65c2.34,12.35-6.44,23.47-19.63,26-1.95.38-2.78-2.4-.82-2.77,11.38-2.17,19.53-11.56,17.46-22.44-.34-1.81,2.64-2.59,3-.77Z" style="fill:#fff"/><path d="M244.46,118.82c-9.07,15.56-19.68,30.08-30,44.9-1.08,1.55-3.76.11-2.67-1.45,10.36-14.82,21-29.34,30-44.9,1-1.63,3.62-.18,2.67,1.45Z" style="fill:#fff"/><path d="M211.72,165c-19.73-.1-39.43-1.55-59.17-.85a1.44,1.44,0,1,1,0-2.88c19.74-.7,39.44.76,59.17.85a1.44,1.44,0,1,1,0,2.88Z" style="fill:#fff"/><path d="M257.76,113a455.6,455.6,0,0,1-38.33,62c-1.13,1.52-3.81.08-2.68-1.45a455.67,455.67,0,0,0,38.34-62c.86-1.67,3.53-.21,2.67,1.45Z" style="fill:#fff"/><path d="M217.48,176.62c-21.95.08-43.88,1.49-65.84,1.32a1.44,1.44,0,1,1,0-2.87c22,.17,43.89-1.24,65.84-1.32a1.44,1.44,0,1,1,0,2.87Z" style="fill:#fff"/><path d="M252.72,57.74c6.41-2.29,12.88-1,19.53-.9a1.44,1.44,0,1,1,0,2.88c-6.36-.1-12.58-1.39-18.7.79-1.87.67-2.67-2.11-.83-2.77Z" style="fill:#fff"/><path d="M269.93,57.32c13.35,1.84,10.92,22.21,10.86,31,0,1.86-3.1,1.86-3.09,0,0-7.49,2.58-26.65-8.59-28.19-2-.27-1.13-3,.82-2.77Z" style="fill:#fff"/><path d="M280.74,88.42l-22,78.88c-.5,1.8-3.48,1-3-.76l22-78.89c.5-1.79,3.49-1,3,.77Z" style="fill:#fff"/><path d="M218.09,155.54c-12-.62-24-1.84-36-3.1-2-.21-2-3.09,0-2.88,12,1.27,23.91,2.49,36,3.1,2,.1,2,3,0,2.88Z" style="fill:#fff"/><path d="M256.62,168.92c-10.57,0-21.13.26-31.7.28a1.44,1.44,0,1,1,0-2.87c10.57,0,21.13-.26,31.7-.28a1.44,1.44,0,1,1,0,2.87Z" style="fill:#fff"/><path d="M267.83,109c-5.88,15.74-10.66,31.9-17.45,47.34-.75,1.69-3.74.95-3-.76,6.79-15.44,11.58-31.6,17.45-47.35.65-1.74,3.64-1,3,.77Z" style="fill:#fff"/><path d="M247.85,157.37c-4.92,0-9.82-.4-14.74-.43a1.44,1.44,0,1,1,0-2.87c4.92,0,9.82.4,14.74.42a1.44,1.44,0,1,1,0,2.88Z" style="fill:#fff"/><path d="M189.77,71.35c-1.71,4.92-1,10.3,0,15.29.35,1.82-2.64,2.59-3,.77-1-5.51-1.89-11.4,0-16.83.61-1.76,3.6-1,3,.77Z" style="fill:#fff"/><path d="M187.78,89.05a21.89,21.89,0,0,0-5.32,2.6,1.46,1.46,0,0,1-1.56-2.48,25.43,25.43,0,0,1,6.06-2.9,1.45,1.45,0,1,1,.82,2.78Z" style="fill:#fff"/><path d="M180.12,90.5c-1.92-3.25-3.22-6.83-5.91-9.64-1.32-1.38.87-3.43,2.2-2,2.88,3,4.32,6.73,6.38,10.23,1,1.63-1.71,3.08-2.67,1.45Z" style="fill:#fff"/><path d="M222,58.14c-.16-12.19-3.23-26.2-15.92-32.29l2.12-2c2.17,4,2.33,8.2,2.64,12.56.13,1.85-3,1.84-3.1,0-.27-3.82-.3-7.62-2.21-11.11a1.51,1.51,0,0,1,2.12-2c13.66,6.56,17.28,21.58,17.45,34.78,0,1.85-3.07,1.85-3.1,0Z" style="fill:#fff"/><path d="M208,37.17c-3.34-4.9-6.73-9.11-12.26-12-6.76-3.56-15.36-4.38-22.92-5.35l1.2-2.63c7.3,4.84,11.36,12.17,15.42,19.4.92,1.64-1.75,3.1-2.67,1.45C183,31.3,179.21,24.16,172.4,19.65c-1.49-1-.53-2.85,1.2-2.63,8.16,1.05,16.16,2.34,23.66,5.64,6,2.66,9.92,8,13.37,13.06,1.07,1.57-1.61,3-2.68,1.45Z" style="fill:#fff"/><path d="M187.58,39.66c-11.45-6.9-25.46-10.17-38.86-6.91.12-.87.24-1.75.37-2.62a141.37,141.37,0,0,1,22.76,17.13c1.43,1.3-.76,3.34-2.19,2a137.73,137.73,0,0,0-22.14-16.68,1.42,1.42,0,0,1,.37-2.63c14.17-3.45,29.11-.11,41.25,7.19a1.47,1.47,0,0,1-1.56,2.49Z" style="fill:#fff"/><path d="M170.89,50.36c-6.64-2.68-14.15.39-19.68,4l-.78-2.68c8.85-.67,18.16,3.65,22.58,10.86,1,1.61-1.69,3.06-2.68,1.45-3.91-6.4-12.09-10-19.9-9.43a1.43,1.43,0,0,1-.78-2.68c6.59-4.25,15-7.08,22.8-3.95,1.83.74.25,3.22-1.56,2.48Z" style="fill:#fff"/><path d="M173.22,64.06c.64,5,1.35,9.78.55,14.75-.3,1.83-3.28,1-3-.76.76-4.68-.05-9.34-.66-14-.24-1.84,2.86-1.82,3.1,0Z" style="fill:#fff"/><path d="M187.47,70.16c1.07-4.69,8.11-5.43,12.22-4.39a1.45,1.45,0,1,1-.82,2.78c-2.47-.63-7.73-.6-8.41,2.37-.42,1.82-3.4,1-3-.76Z" style="fill:#fff"/><path d="M228.37,56c2-2,4.16-4,7.06-4.88a1.44,1.44,0,1,1,.82,2.77c-2.34.71-4.07,2.5-5.69,4.14-1.35,1.37-3.53-.67-2.19-2Z" style="fill:#fff"/><path d="M236.64,51a31.74,31.74,0,0,1,7-.17c3.12.07,6.26-.27,9.38-.31a1.44,1.44,0,1,1,0,2.88c-2.83,0-5.66.24-8.49.28-2.33,0-4.73-.36-7,.09-1.94.38-2.77-2.39-.82-2.77Z" style="fill:#fff"/><path d="M254.47,51.92A10.22,10.22,0,0,1,256.2,58c0,1.85-3.07,1.85-3.1,0a7.64,7.64,0,0,0-1.3-4.63c-1.17-1.51,1.51-2.94,2.67-1.45Z" style="fill:#fff"/><path d="M238.59,53.3a10.58,10.58,0,0,0-1,4.45c0,1.85-3.12,1.85-3.09,0a14,14,0,0,1,1.4-5.91c.81-1.69,3.48-.22,2.68,1.46Z" style="fill:#fff"/><path d="M153.65,151c-9.24,7.58-18.83,14.1-24.64,24.51-6.28,11.25-12,23.35-12.53,36.19-.07,1.85-3.17,1.85-3.1,0,.5-12.58,5.8-24.21,11.71-35.35,6.2-11.73,16-18.89,26.37-27.39,1.49-1.22,3.69.81,2.19,2Z" style="fill:#fff"/><path d="M158.8,178.31c-13.23,6.78-28.1,21.37-27,36.38.14,1.85-3,1.84-3.1,0-1.18-16.05,14.39-31.61,28.53-38.87,1.75-.89,3.31,1.59,1.57,2.49Z" style="fill:#fff"/><path d="M131.35,213.67c17.46,13.12,35.44,24.45,54.3,35.71a1.46,1.46,0,1,1-1.56,2.48C165,240.48,146.81,229,129.16,215.71c-1.56-1.17.65-3.19,2.19-2Z" style="fill:#fff"/><path d="M186.11,251.35c-10.54,11.47-18.93,26.6-25.54,40.29-.82,1.69-3.49.23-2.68-1.45,6.74-13.95,15.29-29.19,26-40.87a1.49,1.49,0,0,1,2.19,2Z" style="fill:#fff"/><path d="M125.44,227.37a438.24,438.24,0,0,1,46.69,24.29,1.46,1.46,0,1,1-1.56,2.48,442,442,0,0,0-46.69-24.29c-1.81-.8-.23-3.28,1.56-2.48Z" style="fill:#fff"/><path d="M172.76,254.45c-4,4.56-5.78,10.29-8.55,15.49a204.09,204.09,0,0,1-10.62,18.32c-1.06,1.57-3.74.13-2.68-1.45,4-5.89,7.19-12.15,10.62-18.32,3-5.43,4.82-11.27,9-16.07,1.27-1.44,3.45.61,2.19,2Z" style="fill:#fff"/><path d="M125.53,229c-2.5,14.84-6,29.5-9.11,44.25-.38,1.81-3.36,1-3-.77,3.09-14.74,6.6-29.4,9.1-44.24.31-1.83,3.29-1,3,.76Z" style="fill:#fff"/><path d="M115.65,275.11c-9.62,2.82-21.43,3.31-29.06,10.06-1.44,1.28-3.63-.75-2.19-2,8.13-7.19,20.2-7.81,30.42-10.8a1.45,1.45,0,1,1,.83,2.77Z" style="fill:#fff"/><path d="M116.48,211.73c-1.51,19.13-3.09,38.37-6.43,57.31-.32,1.82-3.3,1-3-.77,3.29-18.68,4.83-37.67,6.31-56.54.15-1.84,3.24-1.85,3.1,0Z" style="fill:#fff"/><path d="M108.56,270.09c-10.19-.16-18.53,6.07-24.42,13.29-1.19,1.46-3.88,0-2.68-1.45,6.56-8,15.75-14.89,27.1-14.71a1.44,1.44,0,1,1,0,2.87Z" style="fill:#fff"/><path d="M160.87,291.6c5.46,9.76,17.16,11.77,27.9,13.15,2,.25,1.13,3-.83,2.77-11.6-1.49-23.89-4-29.74-14.47-.93-1.64,1.75-3.09,2.67-1.45Z" style="fill:#fff"/><path d="M189.27,308.42c-12.9,0-26,.13-38.84-.56-2-.11-2-3,0-2.88,12.87.7,25.94.56,38.84.56a1.44,1.44,0,1,1,0,2.88Z" style="fill:#fff"/><path d="M153,290c-3.21,4.52-6.32,10.95-6.18,16.47,0,1.85-3,1.85-3.09,0-.16-6,3.09-13,6.6-17.92,1.09-1.54,3.77-.1,2.67,1.45Z" style="fill:#fff"/><path d="M145.26,305a79.09,79.09,0,0,1,8.43.32c2,.21,2,3.09,0,2.87a79.08,79.08,0,0,0-8.43-.31,1.44,1.44,0,1,1,0-2.88Z" style="fill:#fff"/><path d="M87.35,285c-.68,8.56,2.42,17.38,11.91,20.31a1.45,1.45,0,1,1-.82,2.78c-10.78-3.34-15-13.15-14.19-23.09.15-1.84,3.25-1.85,3.1,0Z" style="fill:#fff"/><path d="M99.46,309c-8.48-.78-17-.58-25.49-.56a1.44,1.44,0,1,1,0-2.88c8.5,0,17-.22,25.49.57,2,.18,2,3.06,0,2.87Z" style="fill:#fff"/><path d="M72.17,306.24c-3.88-8.74,2.32-20.78,10.73-25.3,1.73-.93,3.29,1.56,1.56,2.48-7.32,3.94-12.67,14.49-9.3,22.05.76,1.72-2.24,2.45-3,.77Z" style="fill:#fff"/><path d="M167.72,158.78c-5.93.09-15.56-4.1-15.11-10.61.13-1.85,3.23-1.86,3.1,0-.33,4.82,7.75,7.8,12,7.73a1.44,1.44,0,1,1,0,2.88Z" style="fill:#fff"/><path d="M185.52,164.48a13.29,13.29,0,0,0-.75,10.72c.64,1.77-2.35,2.52-3,.77A16,16,0,0,1,182.85,163c.93-1.64,3.6-.18,2.67,1.46Z" style="fill:#fff"/><path d="M203.73,154.12c-1.37,2.55-1.17,5.38-1.16,8.15,0,1.86-3.09,1.85-3.09,0,0-3.34-.06-6.54,1.57-9.6.89-1.67,3.56-.21,2.68,1.45Z" style="fill:#fff"/><path d="M130.58,215.91c-5.48,3-13.21,2.31-17-2.72-1.14-1.52,1.54-3,2.68-1.45,2.79,3.72,8.83,3.79,12.75,1.69,1.73-.94,3.28,1.55,1.56,2.48Z" style="fill:#fff"/><path d="M159.34,292.16c-3.19,1.15-7.08.9-8.05-2.69-.49-1.8,2.5-2.56,3-.77s2.76,1.23,4.24.69c1.87-.67,2.67,2.11.83,2.77Z" style="fill:#fff"/><path d="M149.1,165.35c-.3.09-.45,1.18-.46,1.57,0,1.85-3.15,1.86-3.1,0s.76-3.73,2.73-4.35a1.45,1.45,0,1,1,.83,2.78Z" style="fill:#fff"/></svg>