<?xml version="1.0" encoding="utf-8"?>
<!-- Generator: Adobe Illustrator 24.0.1, SVG Export Plug-In . SVG Version: 6.00 Build 0)  -->
<svg version="1.1" id="icons" xmlns="http://www.w3.org/2000/svg" xmlns:xlink="http://www.w3.org/1999/xlink" x="0px" y="0px"
	 viewBox="0 0 512 512" style="enable-background:new 0 0 512 512;" xml:space="preserve">
<style type="text/css">
	.st0{fill:#FFFFFF;}
</style>
<path class="st0" d="M488,28H24C10.8,28,0,38.8,0,52v320c0,13.2,10.8,24,24,24h165.8l-12,48H168c-13.2,0-24,10.8-24,24v8
	c0,4.4,3.6,8,8,8h208c4.4,0,8-3.6,8-8v-8c0-13.2-10.8-24-24-24h-9.8l-12-48H488c13.2,0,24-10.8,24-24V52C512,38.8,501.2,28,488,28z
	 M248,348v-16c0-17.6-14.4-32-32-32c-0.1,0-0.2,0-0.2,0H200v-8.7c13.2-7.7,23.5-19.9,28.5-34.6c2.2,6,3.5,12.5,3.5,19.3
	c0,4.4,3.6,8,8,8s8-3.6,8-8v-80c0-39.7-32.3-72-72-72c-14.3,0-29.1,5.7-43.1,16.3c-16.2,1.6-28.9,15.1-28.9,31.7v64v0
	c0,23.6,12.9,44.2,32,55.3v8.7h-15.8c-0.1,0-0.2,0-0.2,0c-17.6,0-32,14.4-32,32v16H48V76h416v272H248z M104,348v-16
	c0-8.8,7.1-15.9,15.8-16c0.1,0,0.1,0,0.2,0h21.7l21.9,14.6c0.1,0.1,0.2,0.1,0.3,0.2c0.4,0.3,0.9,0.5,1.4,0.7
	c0.2,0.1,0.4,0.2,0.6,0.2c0.7,0.2,1.3,0.3,2,0.3c0,0,0.1,0,0.1,0h0h0c0,0,0,0,0.1,0c0.7,0,1.4-0.1,2-0.3c0.2-0.1,0.4-0.2,0.6-0.2
	c0.5-0.2,1-0.4,1.4-0.7c0.1-0.1,0.2-0.1,0.3-0.2l21.9-14.6H216c0.1,0,0.1,0,0.2,0c8.7,0.1,15.8,7.2,15.8,16v16H104z M232,230.9
	c-0.6-0.8-1.3-1.5-2-2.3c-0.2-0.2-0.4-0.5-0.6-0.7C216.2,213.3,197.2,204,176,204h-16c-8.8,0-16-7.2-16-16v-36
	c8.1-5.9,19.4-12,32-12c30.9,0,56,25.1,56,56V230.9z M128,188c0,5.9-3.2,11-8,13.8V172c0-5.9,3.2-11,8-13.8V188z M120,218.9
	c6.3-1.6,11.8-5.2,16-9.9c5.9,6.7,14.4,11.1,24,11.1h16c15.6,0,29.8,6.5,40,16.8c-0.5,26.1-21.8,47.1-48,47.1c-26.5,0-48-21.5-48-48
	L120,218.9z M168,300c5.5,0,10.9-0.8,16-2.1v5.8l-16,10.7l-16-10.7v-5.8C157.1,299.2,162.4,300,168,300z M16,348v-16h16v16H16z
	 M32,124H16v-16h16V124z M32,140v16H16v-16H32z M32,172v16H16v-16H32z M32,204v16H16v-16H32z M32,236v16H16v-16H32z M32,268v16H16
	v-16H32z M32,300v16H16v-16H32z M32,92H16V76h16V92z M496,76v16h-16V76H496z M480,204h16v16h-16V204z M480,188v-16h16v16H480z
	 M480,156v-16h16v16H480z M480,124v-16h16v16H480z M480,236h16v112h-16V236z M24,44h8.2c-4.4,0-8,3.6-8,8s3.6,8,8,8c4.4,0,8-3.6,8-8
	s-3.6-8-8-8h23.9c-4.4,0-8,3.6-8,8s3.6,8,8,8c4.4,0,8-3.6,8-8s-3.6-8-8-8h23.9c-4.4,0-8,3.6-8,8s3.6,8,8,8c4.4,0,8-3.6,8-8
	s-3.6-8-8-8H488c4.4,0,8,3.6,8,8v8H80.2h-24h-24H16v-8C16,47.6,19.6,44,24,44z M168,460h176c4.4,0,8,3.6,8,8H160
	C160,463.6,163.6,460,168,460z M317.8,444H194.2l12-48h99.5L317.8,444z M488,380H256.2H24c-4.4,0-8-3.6-8-8v-8h79.7
	c0.1,0,0.2,0.1,0.3,0.1s0.2-0.1,0.3-0.1h143.5c0.1,0,0.2,0.1,0.3,0.1s0.2-0.1,0.3-0.1h15.9c-4.4,0-8,3.6-8,8s3.6,8,8,8
	c4.4,0,8-3.6,8-8s-3.6-8-8-8H496v8C496,376.4,492.4,380,488,380z"/>
<path class="st0" d="M424,124H304c-4.4,0-8,3.6-8,8v152c0,4.4,3.6,8,8,8h120c4.4,0,8-3.6,8-8V132C432,127.6,428.4,124,424,124z
	 M416,276H312V140h104V276z"/>
<path class="st0" d="M340,188c8.2,0,15.2-4.9,18.3-12H400c4.4,0,8-3.6,8-8s-3.6-8-8-8h-41.7c-3.1-7.1-10.1-12-18.3-12
	c-11,0-20,9-20,20S329,188,340,188z M340,164c2.2,0,4,1.8,4,4s-1.8,4-4,4s-4-1.8-4-4S337.8,164,340,164z"/>
<path class="st0" d="M328,256h41.7c3.1,7.1,10.1,12,18.3,12c11,0,20-9,20-20s-9-20-20-20c-8.2,0-15.2,4.9-18.3,12H328
	c-4.4,0-8,3.6-8,8S323.6,256,328,256z M388,244c2.2,0,4,1.8,4,4s-1.8,4-4,4s-4-1.8-4-4S385.8,244,388,244z"/>
<path class="st0" d="M328,216h17.7c3.1,7.1,10.1,12,18.3,12s15.2-4.9,18.3-12H400c4.4,0,8-3.6,8-8s-3.6-8-8-8h-17.7
	c-3.1-7.1-10.1-12-18.3-12s-15.2,4.9-18.3,12H328c-4.4,0-8,3.6-8,8S323.6,216,328,216z M364,204c2.2,0,4,1.8,4,4s-1.8,4-4,4
	s-4-1.8-4-4S361.8,204,364,204z"/>
</svg>
