<?xml version="1.0"?>
<svg xmlns="http://www.w3.org/2000/svg" id="photographer" enable-background="new 0 0 300 300" height="512px" viewBox="0 0 300 300" width="512px"><g><path d="m254 164.739c7.719 0 14-6.281 14-14s-6.281-14-14-14-14 6.281-14 14 6.281 14 14 14zm0-20c3.309 0 6 2.691 6 6s-2.691 6-6 6-6-2.691-6-6 2.691-6 6-6z" data-original="#000000" class="active-path" data-old_color="#000000" fill="#FFFFFF"/><path d="m261.47 90.739c0 2.501 2.028 4.529 4.53 4.529s4.53-2.028 4.53-4.529c0-2.502-2.028-4.53-4.53-4.53s-4.53 2.029-4.53 4.53z" data-original="#000000" class="active-path" data-old_color="#000000" fill="#FFFFFF"/><path d="m194 43.269c2.501 0 4.53-2.028 4.53-4.529 0-2.502-2.028-4.53-4.53-4.53s-4.53 2.028-4.53 4.53c0 2.501 2.029 4.529 4.53 4.529z" data-original="#000000" class="active-path" data-old_color="#000000" fill="#FFFFFF"/><path d="m218 174.21c-2.501 0-4.53 2.028-4.53 4.53 0 2.501 2.028 4.529 4.53 4.529s4.53-2.028 4.53-4.529c0-2.502-2.029-4.53-4.53-4.53z" data-original="#000000" class="active-path" data-old_color="#000000" fill="#FFFFFF"/><path d="m245.824 56.915c.781.781 1.805 1.172 2.828 1.172s2.047-.391 2.828-1.172l4.52-4.52 4.52 4.52c.781.781 1.805 1.172 2.828 1.172s2.047-.391 2.828-1.172c1.562-1.562 1.562-4.094 0-5.656l-4.52-4.52 4.52-4.52c1.562-1.562 1.562-4.094 0-5.656s-4.094-1.562-5.656 0l-4.52 4.52-4.52-4.52c-1.562-1.562-4.094-1.562-5.656 0s-1.562 4.094 0 5.656l4.52 4.52-4.52 4.52c-1.562 1.562-1.562 4.094 0 5.656z" data-original="#000000" class="active-path" data-old_color="#000000" fill="#FFFFFF"/><circle cx="182" cy="134.739" r="4" data-original="#000000" class="active-path" data-old_color="#000000" fill="#FFFFFF"/><circle cx="142" cy="134.739" r="4" data-original="#000000" class="active-path" data-old_color="#000000" fill="#FFFFFF"/><path d="m64 82.671c9.51 0 17.246-7.736 17.246-17.246 0-9.508-7.736-17.244-17.246-17.244s-17.246 7.736-17.246 17.244c0 9.51 7.736 17.246 17.246 17.246zm0-26.49c5.098 0 9.246 4.146 9.246 9.244s-4.148 9.246-9.246 9.246-9.246-4.148-9.246-9.246 4.148-9.244 9.246-9.244z" data-original="#000000" class="active-path" data-old_color="#000000" fill="#FFFFFF"/><path d="m64 43.146c2.209 0 4-1.791 4-4v-7.885c0-2.209-1.791-4-4-4s-4 1.791-4 4v7.885c0 2.208 1.791 4 4 4z" data-original="#000000" class="active-path" data-old_color="#000000" fill="#FFFFFF"/><path d="m60 90.333v7.885c0 2.209 1.791 4 4 4s4-1.791 4-4v-7.885c0-2.209-1.791-4-4-4s-4 1.791-4 4z" data-original="#000000" class="active-path" data-old_color="#000000" fill="#FFFFFF"/><path d="m42.309 49.22c.789.852 1.859 1.281 2.934 1.281.975 0 1.949-.354 2.719-1.066 1.621-1.502 1.717-4.033.215-5.652l-5.359-5.781c-1.504-1.627-4.035-1.713-5.652-.215-1.621 1.502-1.717 4.033-.215 5.652z" data-original="#000000" class="active-path" data-old_color="#000000" fill="#FFFFFF"/><path d="m80.039 80.044c-1.621 1.502-1.717 4.033-.215 5.652l5.359 5.781c.789.852 1.859 1.281 2.934 1.281.975 0 1.949-.354 2.719-1.066 1.621-1.502 1.717-4.033.215-5.652l-5.359-5.781c-1.504-1.627-4.036-1.713-5.653-.215z" data-original="#000000" class="active-path" data-old_color="#000000" fill="#FFFFFF"/><path d="m39.883 92.759c1.074 0 2.145-.43 2.934-1.281l5.359-5.781c1.502-1.619 1.406-4.15-.215-5.652-1.619-1.498-4.146-1.412-5.652.215l-5.359 5.781c-1.502 1.619-1.406 4.15.215 5.652.769.712 1.743 1.066 2.718 1.066z" data-original="#000000" class="active-path" data-old_color="#000000" fill="#FFFFFF"/><path d="m82.758 50.501c1.074 0 2.145-.43 2.934-1.281l5.359-5.781c1.502-1.619 1.406-4.15-.215-5.652-1.617-1.498-4.148-1.412-5.652.215l-5.359 5.781c-1.502 1.619-1.406 4.15.215 5.652.769.712 1.743 1.066 2.718 1.066z" data-original="#000000" class="active-path" data-old_color="#000000" fill="#FFFFFF"/><path d="m44 64.739c0-2.209-1.791-4-4-4h-8c-2.209 0-4 1.791-4 4s1.791 4 4 4h8c2.209 0 4-1.791 4-4z" data-original="#000000" class="active-path" data-old_color="#000000" fill="#FFFFFF"/><path d="m84 64.739c0 2.209 1.791 4 4 4h8c2.209 0 4-1.791 4-4s-1.791-4-4-4h-8c-2.209 0-4 1.791-4 4z" data-original="#000000" class="active-path" data-old_color="#000000" fill="#FFFFFF"/><path d="m268 216.739h-3.51v-4c0-2.209-1.791-4-4-4s-4 1.791-4 4v4h-2.228l-3.333-12.994c-.455-1.77-2.049-3.006-3.875-3.006h-30.5c-.295-.362-.636-.696-1.064-.945-1.162-.678-2.367-1.301-3.611-1.867l-20.047-9.111-11.932-5.424c.006-.794.012-1.923.019-3.251 15.341-7.309 27.005-20.958 31.733-37.409 2.584.07 5.105-.646 7.523-2.152 3.713-2.312 6.223-6.082 6.717-10.082.492-4.008-.746-8.027-3.402-11.029-1.746-1.974-4.017-3.326-6.49-4.069v-6.66c0-.023-.012-.042-.013-.065 0-.02.013-.037.013-.056v-23.88c0-12.33-6.957-23.125-19.592-30.398-19.494-11.225-48.25-11.525-66.885-.709-9.863 5.726-21.603 17.049-21.523 38.463 0 0 .035 9.34.027 12.51-.002.047-.027.086-.027.134v10.647c-2.275.678-4.373 1.869-6.074 3.63-2.662 2.758-4.053 6.391-3.918 10.232.154 4.277 2.582 8.41 6.496 11.053 2.475 1.672 5.064 2.551 7.648 2.439 4.189 15.306 14.358 28.145 27.922 35.931.01 2.103.019 3.642.025 4.719l-11.932 5.424-20.049 9.111c-.042.019-.078.046-.119.065v-49.253c0-2.209-1.791-4-4-4h-63.999c-2.209 0-4 1.791-4 4v56 12c0 2.209 1.791 4 4 4h46.9c-1.824 4.741-2.9 9.822-2.9 15.098v32.902c0 2.209 1.791 4 4 4h100 2.178 77.822c2.209 0 4-1.791 4-4v-48c0-2.207-1.791-3.998-4-3.998zm-21.998 0h-36.004l2.051-8h31.902zm-58.002 0c-2.209 0-4 1.791-4 4v44h-20v-22.853l27.713-44.34 13.404 6.093c-.011.038-.037.067-.047.106l-3.333 12.994zm-54.459-156.189c16.35-9.498 41.662-9.188 58.877.723 7.107 4.093 15.582 11.486 15.582 23.466v21.889c-12.061 8.818-25.699 12.111-38.584 9.285-11.354-2.494-20.766-9.545-25.822-19.346-.586-1.135-1.68-1.922-2.941-2.119-.205-.031-.41-.047-.613-.047-1.055 0-2.076.416-2.832 1.174-5.234 5.248-12.951 8.52-21.178 9.096.008-3.191-.029-12.607-.029-12.607-.067-17.59 9.501-26.846 17.54-31.514zm-14.451 76.824c-.23-1.123-.93-2.094-1.924-2.664-.992-.568-2.18-.688-3.27-.324-1.541.523-2.971.598-4.918-.715-1.773-1.199-2.914-3.004-2.975-4.707-.059-1.65.537-3.209 1.678-4.391 1.143-1.184 2.676-1.834 4.318-1.834 2.209 0 4-1.791 4-4 0-.355 0-1.645 0-2v-4.064c8.593-.48 16.658-3.302 23.039-8.118 6.488 9.66 16.693 16.539 28.662 19.168 3.598.791 7.236 1.182 10.881 1.182 10.02 0 20.067-3.002 29.418-8.715v.547 2c0 2.209 1.791 4 4 4 1.719 0 3.357.738 4.498 2.027 1.154 1.307 1.67 2.994 1.453 4.754-.199 1.625-1.324 3.221-3.004 4.268-1.686 1.051-3.111 1.215-4.928.574-1.078-.383-2.273-.283-3.277.277-1.002.559-1.717 1.521-1.961 2.643-3.898 17.883-17.117 32.492-34.496 38.125l-1.779.576c-4.895 1.588-10.111 1.65-14.68.182-17.686-5.695-30.997-20.559-34.735-38.791zm26.687 52.223c1.465-.664 2.385-2.184 2.342-3.789-.007-.25-.016-1.513-.026-3.318 1.096.427 2.154.927 3.282 1.291 3.029.975 6.184 1.461 9.377 1.461 3.395 0 6.834-.551 10.219-1.646l.933-.302c-.007 1.331-.012 2.208-.013 2.335-.139 1.684.795 3.271 2.332 3.969l10.143 4.611-24.366 38.983-24.365-38.984zm-95.662 11.142 12.141-11.383 19.006 7.129c1.553.584 3.322.135 4.422-1.119l14.316-16.447v21.82zm49.885-48v13.993l-18.529 21.287-18.732-7.025c-1.424-.529-3.027-.213-4.141.828l-14.598 13.684v-42.767zm-9.141 60h-46.859v-4h49.896c-1.075 1.272-2.054 2.621-2.969 4.013-.024 0-.044-.013-.068-.013zm1.141 23.098c0-13.24 7.627-25.262 19.43-30.629l16.857-7.662 27.713 44.34v22.853h-36v-16-8c0-2.209-1.791-4-4-4s-4 1.791-4 4v8 16h-20zm172 28.902h-72v-40h12.842 46.316 12.842z" data-original="#000000" class="active-path" data-old_color="#000000" fill="#FFFFFF"/><path d="m228 228.062c-9.195 0-16.678 7.482-16.678 16.678s7.482 16.678 16.678 16.678 16.678-7.482 16.678-16.678-7.483-16.678-16.678-16.678zm0 25.355c-4.785 0-8.678-3.893-8.678-8.678s3.893-8.678 8.678-8.678 8.678 3.893 8.678 8.678-3.893 8.678-8.678 8.678z" data-original="#000000" class="active-path" data-old_color="#000000" fill="#FFFFFF"/><path d="m58 176.739c5.514 0 10-4.486 10-10s-4.486-10-10-10-10 4.486-10 10 4.486 10 10 10zm0-12c1.104 0 2 .896 2 2s-.896 2-2 2-2-.896-2-2 .896-2 2-2z" data-original="#000000" class="active-path" data-old_color="#000000" fill="#FFFFFF"/></g> </svg>
