<?xml version="1.0" encoding="utf-8"?>
<!-- Generator: Adobe Illustrator 24.0.1, SVG Export Plug-In . SVG Version: 6.00 Build 0)  -->
<svg version="1.1" id="Layer_1" focusable="false" xmlns="http://www.w3.org/2000/svg" xmlns:xlink="http://www.w3.org/1999/xlink"
	 x="0px" y="0px" viewBox="0 0 512 512" style="enable-background:new 0 0 512 512;" xml:space="preserve">
<style type="text/css">
	.st0{fill:#969696;}
</style>
<path class="st0" d="M304,192v32c0,6.6-5.4,12-12,12H124c-6.6,0-12-5.4-12-12v-32c0-6.6,5.4-12,12-12h168
	C298.6,180,304,185.4,304,192z M505,476.7L476.7,505c-9.4,9.4-24.6,9.4-33.9,0L343,405.3c-4.5-4.5-7-10.6-7-17V372
	c-35.3,27.6-79.7,44-128,44C93.1,416,0,322.9,0,208S93.1,0,208,0s208,93.1,208,208c0,48.3-16.4,92.7-44,128h16.3
	c6.4,0,12.5,2.5,17,7l99.7,99.7C514.3,452.1,514.3,467.3,505,476.7z M344,208c0-75.2-60.8-136-136-136S72,132.8,72,208
	s60.8,136,136,136S344,283.2,344,208z"/>
</svg>
