<svg height="512pt" viewBox="0 -148 512.00036 512" width="512pt" xmlns="http://www.w3.org/2000/svg"><path d="m500.257812 174.765625-29.058593-16.742187c17.964843-12.144532 28.546875-31.960938 28.546875-53.910157 0-19.378906-8.25-37.09375-22.546875-49.335937l23.71875-13.667969c9.019531-5.195313 13.089843-15.382813 10.125-25.351563-2.972657-9.984374-11.96875-16.300781-22.378907-15.7226558l-98.804687 5.5156248c-9.167969.511719-16.757813 6.585938-19.605469 14.820313h-139.359375c-4.417969-6.429688-11.824219-10.652344-20.21875-10.652344-8.367187 0-15.769531 4.222656-20.183593 10.652344h-55.722657c-4.140625 0-7.5 3.355468-7.5 7.5 0 4.144531 3.359375 7.5 7.5 7.5h51.4375v145.136718h-119.171875c-3.894531 0-7.0625-3.15625-7.0625-7.03125v-131.078124c0-3.875 3.167969-7.027344 7.0625-7.027344h32.734375c4.140625 0 7.5-3.355469 7.5-7.5 0-4.140625-3.355469-7.5-7.5-7.5h-32.734375c-10.699218 0-19.644531 7.648437-21.640625 17.757812h-23.335937c-12.164063 0-22.058594 9.882813-22.058594 22.027344v95.566406c0 12.144532 9.894531 22.027344 22.058594 22.027344h23.335937c1.996094 10.109375 10.941407 17.757812 21.640625 17.757812h121.914063c4.078125 7.851563 12.28125 13.234376 21.726562 13.234376h.039063c9.441406 0 17.648437-5.382813 21.726562-13.234376h137.996094c2.972656 7.925782 10.382812 13.753907 19.296875 14.300782l98.144531 6.023437c.488282.027344.972656.042969 1.453125.042969 9.816407 0 18.164063-6.160156 21.03125-15.699219 3-9.988281-1.0625-20.199219-10.105469-25.410156zm-485.257812-19.042969v-95.566406c0-3.875 3.167969-7.027344 7.058594-7.027344h22.914062v109.621094h-22.914062c-3.890625 0-7.058594-3.152344-7.058594-7.027344zm220.183594-120.351562h76.460937v145.136718h-76.460937zm-24.46875 158.371094h-.039063c-5.222656 0-9.46875-4.246094-9.46875-9.46875v-150.085938c0-5.222656 4.246094-9.46875 9.507813-9.46875 5.21875 0 9.46875 4.246094 9.46875 9.46875v150.085938c0 5.222656-4.25 9.46875-9.46875 9.46875zm285.28125 2.117187c-.375 1.253906-2.007813 5.347656-7.199219 5l-98.140625-6.023437c-3.71875-.226563-6.628906-3.308594-6.628906-7.015626v-62.699218c0-4.140625-3.355469-7.5-7.5-7.5-4.140625 0-7.5 3.355468-7.5 7.5v55.386718h-42.382813v-145.136718h42.382813v54.742187c0 4.144531 3.359375 7.5 7.5 7.5 4.144531 0 7.5-3.355469 7.5-7.5v-62.566406c0-3.726563 2.929687-6.8125 6.667968-7.019531l98.804688-5.511719c5.15625-.277344 6.792969 3.769531 7.164062 5.019531.371094 1.246094 1.230469 5.507813-3.234374 8.078125l-33.855469 19.503907c-2.324219 1.339843-3.757813 3.820312-3.757813 6.5 0 2.683593 1.433594 5.160156 3.757813 6.5 15.761719 9.082031 25.171875 25.339843 25.171875 43.496093 0 18.160157-9.410156 34.417969-25.171875 43.5l-6.96875 4.015625c-2.324219 1.339844-3.753907 3.816406-3.753907 6.5 0 2.679688 1.433594 5.15625 3.753907 6.496094l40.164062 23.136719c4.476563 2.582031 3.601563 6.847656 3.226563 8.097656zm0 0"/><path d="m353.0625 158.230469h-10.195312c-4.140626 0-7.5 3.355469-7.5 7.5 0 4.140625 3.359374 7.5 7.5 7.5h10.195312c4.140625 0 7.5-3.359375 7.5-7.5 0-4.144531-3.359375-7.5-7.5-7.5zm0 0"/><path d="m353.0625 129.175781h-10.195312c-4.140626 0-7.5 3.355469-7.5 7.5 0 4.140625 3.359374 7.5 7.5 7.5h10.195312c4.140625 0 7.5-3.359375 7.5-7.5 0-4.144531-3.359375-7.5-7.5-7.5zm0 0"/><path d="m353.0625 100.117188h-10.195312c-4.140626 0-7.5 3.355468-7.5 7.5 0 4.140624 3.359374 7.5 7.5 7.5h10.195312c4.140625 0 7.5-3.355469 7.5-7.5 0-4.144532-3.359375-7.5-7.5-7.5zm0 0"/><path d="m353.0625 71.058594h-10.195312c-4.140626 0-7.5 3.359375-7.5 7.5 0 4.144531 3.359374 7.5 7.5 7.5h10.195312c4.140625 0 7.5-3.355469 7.5-7.5 0-4.140625-3.359375-7.5-7.5-7.5zm0 0"/><path d="m353.0625 42.003906h-10.195312c-4.140626 0-7.5 3.355469-7.5 7.5 0 4.140625 3.359374 7.5 7.5 7.5h10.195312c4.140625 0 7.5-3.359375 7.5-7.5 0-4.144531-3.359375-7.5-7.5-7.5zm0 0"/></svg>