<svg id="Capa_1" data-name="Capa 1" xmlns="http://www.w3.org/2000/svg" viewBox="0 0 508 512"><defs><style>.cls-1{fill:#d11124;}.cls-2{fill:#f9c402;}</style></defs><title>wedding</title><path class="cls-1" d="M382.26,148.41h.35l63.3-1.14a10,10,0,0,0,9.82-9.82l1.14-63.32v-.37C456.42,50.36,437,31,413.67,30.59c-19.91-.33-36.22,15.54-38,36.57C355,69,338.74,85.62,339.06,105.21A44.39,44.39,0,0,0,382.26,148.41ZM378.64,87l.54,0c4.48-.14,8.71-.27,12.33-3.85s3.81-8,3.95-12.33l0-.63c.32-9.48,7.1-19.6,17.53-19.6h.29c12.48.22,23.23,10.91,23.55,23.39l-.95,53.48-53.47,1a24.22,24.22,0,0,1-23.39-23.56c-.17-10.6,10.05-17.52,19.59-17.84Z" transform="translate(-2 0)"/><path class="cls-2" d="M100.78,59.93a10,10,0,1,0,19.15-5.75l-9.4-31.38a10,10,0,0,0-19.16,5.75Z" transform="translate(-2 0)"/><path class="cls-2" d="M41.26,93.25a10,10,0,0,0,5.17-18.57L17.16,57.05A10,10,0,0,0,6.84,74.18L36.11,91.81A9.92,9.92,0,0,0,41.26,93.25Z" transform="translate(-2 0)"/><path class="cls-2" d="M178.13,49.87a10,10,0,0,0,13.33-4.72L206.2,14.31a10,10,0,0,0-18-8.62L173.42,36.53A10,10,0,0,0,178.13,49.87Z" transform="translate(-2 0)"/><path d="M484.47,417.13a167.34,167.34,0,0,0,9.75-24.93A165.49,165.49,0,0,0,473,251.91a10,10,0,1,0-16.6,11.16A145.56,145.56,0,0,1,469.84,401a39.23,39.23,0,0,0-21.41-20.6c.19-.59.39-1.17.56-1.76A118.54,118.54,0,0,0,314.48,227.82a164.92,164.92,0,0,0-26-21.32,146.53,146.53,0,0,1,102.73,3.26,10,10,0,0,0,7.6-18.5A166.41,166.41,0,0,0,266.06,194a164.29,164.29,0,0,0-73.93-15.24L210.31,130a10,10,0,0,0-2.26-10.54L171,82.1a10,10,0,0,0-10-2.54L80.45,103.77a10,10,0,0,0-6.93,7.62L63.2,163a10,10,0,0,0,3.91,10l42,30.64A166,166,0,0,0,37.87,392.2q1.58,5.25,3.52,10.39c-.45.41-.88.84-1.31,1.28a44.36,44.36,0,0,0,0,61.08c.08.09.17.17.25.25l45.57,44a10,10,0,0,0,13.89,0l19-18.33A166,166,0,0,0,244.3,503.32a171.74,171.74,0,0,0,21.77-8.23,165.29,165.29,0,0,0,139.4-.31l61,1.09h.37A44.36,44.36,0,0,0,510,452.66c.29-15.92-10.37-29.88-25.52-35.53ZM92,121.2l69.11-20.75,21.06,21.26-96,28.84Zm3.22,47.5,89.36-26.83-14.55,39a168,168,0,0,0-41.2,12.36ZM68.28,275.41a144.62,144.62,0,0,1,63.66-61.58l.3-.15a147.8,147.8,0,0,1,22.47-8.8A145.71,145.71,0,0,1,336.22,302.6,146.63,146.63,0,0,1,307.61,439l-.48-.14a97.91,97.91,0,0,1-25.43-11.8A118.5,118.5,0,1,0,93.25,402.5l-.4.33a41,41,0,0,0-33.44-9.17c-.85-2.38-1.65-4.79-2.38-7.21a144.91,144.91,0,0,1,11.25-111Zm197.79,139a98.56,98.56,0,0,1,0-139.9,98.68,98.68,0,0,1,0,139.9Zm-63.93,28.48a98.57,98.57,0,0,1-44.4-7.87,43.86,43.86,0,0,0-12.16-31.19c-8.89-9.21-21.87-12.53-34.25-10A98.66,98.66,0,0,1,202,246.05a166.06,166.06,0,0,0,.11,196.88ZM92.84,488.1,54.37,451a24.2,24.2,0,0,1,.11-33.2c7.37-7.63,19.47-5.3,26.44,1.22l.43.41c3.13,2.94,6.36,6,11.48,6s8.35-3,11.48-6l.44-.41c7-6.54,19.07-8.87,26.43-1.24a24.21,24.21,0,0,1,.11,33.2Zm145.69-3.93a146.09,146.09,0,0,1-104.53-8l11.33-10.94.24-.25a42.76,42.76,0,0,0,7.33-10.26,117.82,117.82,0,0,0,64.82,6.49,164.28,164.28,0,0,0,25.89,21.35q-2.54.87-5.08,1.64Zm55,0c-77-23.12-120.8-104.57-97.69-181.57A144.41,144.41,0,0,1,224.48,250a99.42,99.42,0,0,1,18.84,7.78c2.43,1.31,4.78,2.73,7.07,4.21a118.05,118.05,0,0,0-28.45,48.49C203.16,373,238.79,439.27,301.38,458.06a118.57,118.57,0,0,0,91.31-9.76l.54,30.07A145.35,145.35,0,0,1,293.56,484.17Zm98.65-62.93v.35l.06,3.43A98.83,98.83,0,0,1,330,442.9a166.22,166.22,0,0,0,.08-196.81,98.58,98.58,0,0,1,99.73,126.76c-.6,2-1.29,4-2,6-19.86,3.93-35.23,21.55-35.59,42.36Zm74.41,54.63-53.45-1-1-53.48a24.47,24.47,0,0,1,23.56-23.38h.29c10.42,0,17.21,10.12,17.53,19.58l0,.54c.13,4.31.27,8.76,3.89,12.39s8.09,3.77,12.4,3.9l.51,0c9.57.33,19.78,7.24,19.59,17.84A24.21,24.21,0,0,1,466.62,475.87Z" transform="translate(-2 0)"/><path d="M424.43,218.86a10,10,0,0,0,4.48,13.42l0,0a10,10,0,1,0-4.53-13.44Z" transform="translate(-2 0)"/></svg>